<svg xmlns="http://www.w3.org/2000/svg" width="1200" height="700" viewBox="0 0 1200 700" fill="none">
<defs>
<linearGradient id="bg" x1="0" y1="0" x2="1" y2="1">
<stop offset="0%" stop-color="#ffffff" stop-opacity="0.0"/>
<stop offset="100%" stop-color="#ffffff" stop-opacity="0.0"/>
</linearGradient>
<radialGradient id="glowA" cx="30%" cy="20%" r="65%">
<stop offset="0%" stop-color="#d9ad5a" stop-opacity="0.12"/>
<stop offset="100%" stop-color="#000000" stop-opacity="0"/>
</radialGradient>
<radialGradient id="glowB" cx="70%" cy="80%" r="65%">
<stop offset="0%" stop-color="#5fa7d8" stop-opacity="0.10"/>
<stop offset="100%" stop-color="#000000" stop-opacity="0"/>
</radialGradient>
<linearGradient id="wire" x1="0" y1="0" x2="1" y2="0">
<stop offset="0%" stop-color="#6d88a8" stop-opacity="0.20"/>
<stop offset="50%" stop-color="#8ba4be" stop-opacity="0.26"/>
<stop offset="100%" stop-color="#6d88a8" stop-opacity="0.20"/>
</linearGradient>
<filter id="softGlow" x="-50%" y="-50%" width="200%" height="200%">
<feGaussianBlur stdDeviation="2.0" result="blur"/>
<feMerge><feMergeNode in="blur"/><feMergeNode in="SourceGraphic"/></feMerge>
</filter>
</defs>
<rect width="1200" height="700" fill="url(#bg)"/>
<rect width="1200" height="700" fill="url(#glowA)"/>
<rect width="1200" height="700" fill="url(#glowB)"/>
<g stroke="url(#wire)" stroke-width="1.08" stroke-linecap="round">
<path d="M70.0,90.0 C152.8,90.0 217.2,90.0 300.0,90.0"/>
<path d="M70.0,90.0 C152.8,90.0 217.2,130.0 300.0,130.0"/>
<path d="M70.0,90.0 C152.8,90.0 217.2,170.0 300.0,170.0"/>
<path d="M70.0,90.0 C152.8,90.0 217.2,210.0 300.0,210.0"/>
<path d="M70.0,90.0 C152.8,90.0 217.2,250.0 300.0,250.0"/>
<path d="M70.0,90.0 C152.8,90.0 217.2,290.0 300.0,290.0"/>
<path d="M70.0,90.0 C152.8,90.0 217.2,330.0 300.0,330.0"/>
<path d="M70.0,90.0 C152.8,90.0 217.2,370.0 300.0,370.0"/>
<path d="M70.0,90.0 C152.8,90.0 217.2,410.0 300.0,410.0"/>
<path d="M70.0,90.0 C152.8,90.0 217.2,450.0 300.0,450.0"/>
<path d="M70.0,90.0 C152.8,90.0 217.2,490.0 300.0,490.0"/>
<path d="M70.0,90.0 C152.8,90.0 217.2,530.0 300.0,530.0"/>
<path d="M70.0,90.0 C152.8,90.0 217.2,570.0 300.0,570.0"/>
<path d="M70.0,90.0 C152.8,90.0 217.2,610.0 300.0,610.0"/>
<path d="M70.0,164.3 C152.8,164.3 217.2,90.0 300.0,90.0"/>
<path d="M70.0,164.3 C152.8,164.3 217.2,130.0 300.0,130.0"/>
<path d="M70.0,164.3 C152.8,164.3 217.2,170.0 300.0,170.0"/>
<path d="M70.0,164.3 C152.8,164.3 217.2,210.0 300.0,210.0"/>
<path d="M70.0,164.3 C152.8,164.3 217.2,250.0 300.0,250.0"/>
<path d="M70.0,164.3 C152.8,164.3 217.2,290.0 300.0,290.0"/>
<path d="M70.0,164.3 C152.8,164.3 217.2,330.0 300.0,330.0"/>
<path d="M70.0,164.3 C152.8,164.3 217.2,370.0 300.0,370.0"/>
<path d="M70.0,164.3 C152.8,164.3 217.2,410.0 300.0,410.0"/>
<path d="M70.0,164.3 C152.8,164.3 217.2,450.0 300.0,450.0"/>
<path d="M70.0,164.3 C152.8,164.3 217.2,490.0 300.0,490.0"/>
<path d="M70.0,164.3 C152.8,164.3 217.2,530.0 300.0,530.0"/>
<path d="M70.0,164.3 C152.8,164.3 217.2,570.0 300.0,570.0"/>
<path d="M70.0,164.3 C152.8,164.3 217.2,610.0 300.0,610.0"/>
<path d="M70.0,238.6 C152.8,238.6 217.2,90.0 300.0,90.0"/>
<path d="M70.0,238.6 C152.8,238.6 217.2,130.0 300.0,130.0"/>
<path d="M70.0,238.6 C152.8,238.6 217.2,170.0 300.0,170.0"/>
<path d="M70.0,238.6 C152.8,238.6 217.2,210.0 300.0,210.0"/>
<path d="M70.0,238.6 C152.8,238.6 217.2,250.0 300.0,250.0"/>
<path d="M70.0,238.6 C152.8,238.6 217.2,290.0 300.0,290.0"/>
<path d="M70.0,238.6 C152.8,238.6 217.2,330.0 300.0,330.0"/>
<path d="M70.0,238.6 C152.8,238.6 217.2,370.0 300.0,370.0"/>
<path d="M70.0,238.6 C152.8,238.6 217.2,410.0 300.0,410.0"/>
<path d="M70.0,238.6 C152.8,238.6 217.2,450.0 300.0,450.0"/>
<path d="M70.0,238.6 C152.8,238.6 217.2,490.0 300.0,490.0"/>
<path d="M70.0,238.6 C152.8,238.6 217.2,530.0 300.0,530.0"/>
<path d="M70.0,238.6 C152.8,238.6 217.2,570.0 300.0,570.0"/>
<path d="M70.0,238.6 C152.8,238.6 217.2,610.0 300.0,610.0"/>
<path d="M70.0,312.9 C152.8,312.9 217.2,90.0 300.0,90.0"/>
<path d="M70.0,312.9 C152.8,312.9 217.2,130.0 300.0,130.0"/>
<path d="M70.0,312.9 C152.8,312.9 217.2,170.0 300.0,170.0"/>
<path d="M70.0,312.9 C152.8,312.9 217.2,210.0 300.0,210.0"/>
<path d="M70.0,312.9 C152.8,312.9 217.2,250.0 300.0,250.0"/>
<path d="M70.0,312.9 C152.8,312.9 217.2,290.0 300.0,290.0"/>
<path d="M70.0,312.9 C152.8,312.9 217.2,330.0 300.0,330.0"/>
<path d="M70.0,312.9 C152.8,312.9 217.2,370.0 300.0,370.0"/>
<path d="M70.0,312.9 C152.8,312.9 217.2,410.0 300.0,410.0"/>
<path d="M70.0,312.9 C152.8,312.9 217.2,450.0 300.0,450.0"/>
<path d="M70.0,312.9 C152.8,312.9 217.2,490.0 300.0,490.0"/>
<path d="M70.0,312.9 C152.8,312.9 217.2,530.0 300.0,530.0"/>
<path d="M70.0,312.9 C152.8,312.9 217.2,570.0 300.0,570.0"/>
<path d="M70.0,312.9 C152.8,312.9 217.2,610.0 300.0,610.0"/>
<path d="M70.0,387.1 C152.8,387.1 217.2,90.0 300.0,90.0"/>
<path d="M70.0,387.1 C152.8,387.1 217.2,130.0 300.0,130.0"/>
<path d="M70.0,387.1 C152.8,387.1 217.2,170.0 300.0,170.0"/>
<path d="M70.0,387.1 C152.8,387.1 217.2,210.0 300.0,210.0"/>
<path d="M70.0,387.1 C152.8,387.1 217.2,250.0 300.0,250.0"/>
<path d="M70.0,387.1 C152.8,387.1 217.2,290.0 300.0,290.0"/>
<path d="M70.0,387.1 C152.8,387.1 217.2,330.0 300.0,330.0"/>
<path d="M70.0,387.1 C152.8,387.1 217.2,370.0 300.0,370.0"/>
<path d="M70.0,387.1 C152.8,387.1 217.2,410.0 300.0,410.0"/>
<path d="M70.0,387.1 C152.8,387.1 217.2,450.0 300.0,450.0"/>
<path d="M70.0,387.1 C152.8,387.1 217.2,490.0 300.0,490.0"/>
<path d="M70.0,387.1 C152.8,387.1 217.2,530.0 300.0,530.0"/>
<path d="M70.0,387.1 C152.8,387.1 217.2,570.0 300.0,570.0"/>
<path d="M70.0,387.1 C152.8,387.1 217.2,610.0 300.0,610.0"/>
<path d="M70.0,461.4 C152.8,461.4 217.2,90.0 300.0,90.0"/>
<path d="M70.0,461.4 C152.8,461.4 217.2,130.0 300.0,130.0"/>
<path d="M70.0,461.4 C152.8,461.4 217.2,170.0 300.0,170.0"/>
<path d="M70.0,461.4 C152.8,461.4 217.2,210.0 300.0,210.0"/>
<path d="M70.0,461.4 C152.8,461.4 217.2,250.0 300.0,250.0"/>
<path d="M70.0,461.4 C152.8,461.4 217.2,290.0 300.0,290.0"/>
<path d="M70.0,461.4 C152.8,461.4 217.2,330.0 300.0,330.0"/>
<path d="M70.0,461.4 C152.8,461.4 217.2,370.0 300.0,370.0"/>
<path d="M70.0,461.4 C152.8,461.4 217.2,410.0 300.0,410.0"/>
<path d="M70.0,461.4 C152.8,461.4 217.2,450.0 300.0,450.0"/>
<path d="M70.0,461.4 C152.8,461.4 217.2,490.0 300.0,490.0"/>
<path d="M70.0,461.4 C152.8,461.4 217.2,530.0 300.0,530.0"/>
<path d="M70.0,461.4 C152.8,461.4 217.2,570.0 300.0,570.0"/>
<path d="M70.0,461.4 C152.8,461.4 217.2,610.0 300.0,610.0"/>
<path d="M70.0,535.7 C152.8,535.7 217.2,90.0 300.0,90.0"/>
<path d="M70.0,535.7 C152.8,535.7 217.2,130.0 300.0,130.0"/>
<path d="M70.0,535.7 C152.8,535.7 217.2,170.0 300.0,170.0"/>
<path d="M70.0,535.7 C152.8,535.7 217.2,210.0 300.0,210.0"/>
<path d="M70.0,535.7 C152.8,535.7 217.2,250.0 300.0,250.0"/>
<path d="M70.0,535.7 C152.8,535.7 217.2,290.0 300.0,290.0"/>
<path d="M70.0,535.7 C152.8,535.7 217.2,330.0 300.0,330.0"/>
<path d="M70.0,535.7 C152.8,535.7 217.2,370.0 300.0,370.0"/>
<path d="M70.0,535.7 C152.8,535.7 217.2,410.0 300.0,410.0"/>
<path d="M70.0,535.7 C152.8,535.7 217.2,450.0 300.0,450.0"/>
<path d="M70.0,535.7 C152.8,535.7 217.2,490.0 300.0,490.0"/>
<path d="M70.0,535.7 C152.8,535.7 217.2,530.0 300.0,530.0"/>
<path d="M70.0,535.7 C152.8,535.7 217.2,570.0 300.0,570.0"/>
<path d="M70.0,535.7 C152.8,535.7 217.2,610.0 300.0,610.0"/>
<path d="M70.0,610.0 C152.8,610.0 217.2,90.0 300.0,90.0"/>
<path d="M70.0,610.0 C152.8,610.0 217.2,130.0 300.0,130.0"/>
<path d="M70.0,610.0 C152.8,610.0 217.2,170.0 300.0,170.0"/>
<path d="M70.0,610.0 C152.8,610.0 217.2,210.0 300.0,210.0"/>
<path d="M70.0,610.0 C152.8,610.0 217.2,250.0 300.0,250.0"/>
<path d="M70.0,610.0 C152.8,610.0 217.2,290.0 300.0,290.0"/>
<path d="M70.0,610.0 C152.8,610.0 217.2,330.0 300.0,330.0"/>
<path d="M70.0,610.0 C152.8,610.0 217.2,370.0 300.0,370.0"/>
<path d="M70.0,610.0 C152.8,610.0 217.2,410.0 300.0,410.0"/>
<path d="M70.0,610.0 C152.8,610.0 217.2,450.0 300.0,450.0"/>
<path d="M70.0,610.0 C152.8,610.0 217.2,490.0 300.0,490.0"/>
<path d="M70.0,610.0 C152.8,610.0 217.2,530.0 300.0,530.0"/>
<path d="M70.0,610.0 C152.8,610.0 217.2,570.0 300.0,570.0"/>
<path d="M70.0,610.0 C152.8,610.0 217.2,610.0 300.0,610.0"/>
<path d="M300.0,90.0 C372.0,90.0 428.0,90.0 500.0,90.0"/>
<path d="M300.0,90.0 C372.0,90.0 428.0,114.8 500.0,114.8"/>
<path d="M300.0,90.0 C372.0,90.0 428.0,139.5 500.0,139.5"/>
<path d="M300.0,90.0 C372.0,90.0 428.0,164.3 500.0,164.3"/>
<path d="M300.0,90.0 C372.0,90.0 428.0,189.0 500.0,189.0"/>
<path d="M300.0,90.0 C372.0,90.0 428.0,213.8 500.0,213.8"/>
<path d="M300.0,90.0 C372.0,90.0 428.0,238.6 500.0,238.6"/>
<path d="M300.0,90.0 C372.0,90.0 428.0,263.3 500.0,263.3"/>
<path d="M300.0,90.0 C372.0,90.0 428.0,288.1 500.0,288.1"/>
<path d="M300.0,90.0 C372.0,90.0 428.0,312.9 500.0,312.9"/>
<path d="M300.0,90.0 C372.0,90.0 428.0,337.6 500.0,337.6"/>
<path d="M300.0,90.0 C372.0,90.0 428.0,362.4 500.0,362.4"/>
<path d="M300.0,90.0 C372.0,90.0 428.0,387.1 500.0,387.1"/>
<path d="M300.0,90.0 C372.0,90.0 428.0,411.9 500.0,411.9"/>
<path d="M300.0,90.0 C372.0,90.0 428.0,436.7 500.0,436.7"/>
<path d="M300.0,90.0 C372.0,90.0 428.0,461.4 500.0,461.4"/>
<path d="M300.0,90.0 C372.0,90.0 428.0,486.2 500.0,486.2"/>
<path d="M300.0,90.0 C372.0,90.0 428.0,511.0 500.0,511.0"/>
<path d="M300.0,90.0 C372.0,90.0 428.0,535.7 500.0,535.7"/>
<path d="M300.0,90.0 C372.0,90.0 428.0,560.5 500.0,560.5"/>
<path d="M300.0,90.0 C372.0,90.0 428.0,585.2 500.0,585.2"/>
<path d="M300.0,90.0 C372.0,90.0 428.0,610.0 500.0,610.0"/>
<path d="M300.0,130.0 C372.0,130.0 428.0,90.0 500.0,90.0"/>
<path d="M300.0,130.0 C372.0,130.0 428.0,114.8 500.0,114.8"/>
<path d="M300.0,130.0 C372.0,130.0 428.0,139.5 500.0,139.5"/>
<path d="M300.0,130.0 C372.0,130.0 428.0,164.3 500.0,164.3"/>
<path d="M300.0,130.0 C372.0,130.0 428.0,189.0 500.0,189.0"/>
<path d="M300.0,130.0 C372.0,130.0 428.0,213.8 500.0,213.8"/>
<path d="M300.0,130.0 C372.0,130.0 428.0,238.6 500.0,238.6"/>
<path d="M300.0,130.0 C372.0,130.0 428.0,263.3 500.0,263.3"/>
<path d="M300.0,130.0 C372.0,130.0 428.0,288.1 500.0,288.1"/>
<path d="M300.0,130.0 C372.0,130.0 428.0,312.9 500.0,312.9"/>
<path d="M300.0,130.0 C372.0,130.0 428.0,337.6 500.0,337.6"/>
<path d="M300.0,130.0 C372.0,130.0 428.0,362.4 500.0,362.4"/>
<path d="M300.0,130.0 C372.0,130.0 428.0,387.1 500.0,387.1"/>
<path d="M300.0,130.0 C372.0,130.0 428.0,411.9 500.0,411.9"/>
<path d="M300.0,130.0 C372.0,130.0 428.0,436.7 500.0,436.7"/>
<path d="M300.0,130.0 C372.0,130.0 428.0,461.4 500.0,461.4"/>
<path d="M300.0,130.0 C372.0,130.0 428.0,486.2 500.0,486.2"/>
<path d="M300.0,130.0 C372.0,130.0 428.0,511.0 500.0,511.0"/>
<path d="M300.0,130.0 C372.0,130.0 428.0,535.7 500.0,535.7"/>
<path d="M300.0,130.0 C372.0,130.0 428.0,560.5 500.0,560.5"/>
<path d="M300.0,130.0 C372.0,130.0 428.0,585.2 500.0,585.2"/>
<path d="M300.0,130.0 C372.0,130.0 428.0,610.0 500.0,610.0"/>
<path d="M300.0,170.0 C372.0,170.0 428.0,90.0 500.0,90.0"/>
<path d="M300.0,170.0 C372.0,170.0 428.0,114.8 500.0,114.8"/>
<path d="M300.0,170.0 C372.0,170.0 428.0,139.5 500.0,139.5"/>
<path d="M300.0,170.0 C372.0,170.0 428.0,164.3 500.0,164.3"/>
<path d="M300.0,170.0 C372.0,170.0 428.0,189.0 500.0,189.0"/>
<path d="M300.0,170.0 C372.0,170.0 428.0,213.8 500.0,213.8"/>
<path d="M300.0,170.0 C372.0,170.0 428.0,238.6 500.0,238.6"/>
<path d="M300.0,170.0 C372.0,170.0 428.0,263.3 500.0,263.3"/>
<path d="M300.0,170.0 C372.0,170.0 428.0,288.1 500.0,288.1"/>
<path d="M300.0,170.0 C372.0,170.0 428.0,312.9 500.0,312.9"/>
<path d="M300.0,170.0 C372.0,170.0 428.0,337.6 500.0,337.6"/>
<path d="M300.0,170.0 C372.0,170.0 428.0,362.4 500.0,362.4"/>
<path d="M300.0,170.0 C372.0,170.0 428.0,387.1 500.0,387.1"/>
<path d="M300.0,170.0 C372.0,170.0 428.0,411.9 500.0,411.9"/>
<path d="M300.0,170.0 C372.0,170.0 428.0,436.7 500.0,436.7"/>
<path d="M300.0,170.0 C372.0,170.0 428.0,461.4 500.0,461.4"/>
<path d="M300.0,170.0 C372.0,170.0 428.0,486.2 500.0,486.2"/>
<path d="M300.0,170.0 C372.0,170.0 428.0,511.0 500.0,511.0"/>
<path d="M300.0,170.0 C372.0,170.0 428.0,535.7 500.0,535.7"/>
<path d="M300.0,170.0 C372.0,170.0 428.0,560.5 500.0,560.5"/>
<path d="M300.0,170.0 C372.0,170.0 428.0,585.2 500.0,585.2"/>
<path d="M300.0,170.0 C372.0,170.0 428.0,610.0 500.0,610.0"/>
<path d="M300.0,210.0 C372.0,210.0 428.0,90.0 500.0,90.0"/>
<path d="M300.0,210.0 C372.0,210.0 428.0,114.8 500.0,114.8"/>
<path d="M300.0,210.0 C372.0,210.0 428.0,139.5 500.0,139.5"/>
<path d="M300.0,210.0 C372.0,210.0 428.0,164.3 500.0,164.3"/>
<path d="M300.0,210.0 C372.0,210.0 428.0,189.0 500.0,189.0"/>
<path d="M300.0,210.0 C372.0,210.0 428.0,213.8 500.0,213.8"/>
<path d="M300.0,210.0 C372.0,210.0 428.0,238.6 500.0,238.6"/>
<path d="M300.0,210.0 C372.0,210.0 428.0,263.3 500.0,263.3"/>
<path d="M300.0,210.0 C372.0,210.0 428.0,288.1 500.0,288.1"/>
<path d="M300.0,210.0 C372.0,210.0 428.0,312.9 500.0,312.9"/>
<path d="M300.0,210.0 C372.0,210.0 428.0,337.6 500.0,337.6"/>
<path d="M300.0,210.0 C372.0,210.0 428.0,362.4 500.0,362.4"/>
<path d="M300.0,210.0 C372.0,210.0 428.0,387.1 500.0,387.1"/>
<path d="M300.0,210.0 C372.0,210.0 428.0,411.9 500.0,411.9"/>
<path d="M300.0,210.0 C372.0,210.0 428.0,436.7 500.0,436.7"/>
<path d="M300.0,210.0 C372.0,210.0 428.0,461.4 500.0,461.4"/>
<path d="M300.0,210.0 C372.0,210.0 428.0,486.2 500.0,486.2"/>
<path d="M300.0,210.0 C372.0,210.0 428.0,511.0 500.0,511.0"/>
<path d="M300.0,210.0 C372.0,210.0 428.0,535.7 500.0,535.7"/>
<path d="M300.0,210.0 C372.0,210.0 428.0,560.5 500.0,560.5"/>
<path d="M300.0,210.0 C372.0,210.0 428.0,585.2 500.0,585.2"/>
<path d="M300.0,210.0 C372.0,210.0 428.0,610.0 500.0,610.0"/>
<path d="M300.0,250.0 C372.0,250.0 428.0,90.0 500.0,90.0"/>
<path d="M300.0,250.0 C372.0,250.0 428.0,114.8 500.0,114.8"/>
<path d="M300.0,250.0 C372.0,250.0 428.0,139.5 500.0,139.5"/>
<path d="M300.0,250.0 C372.0,250.0 428.0,164.3 500.0,164.3"/>
<path d="M300.0,250.0 C372.0,250.0 428.0,189.0 500.0,189.0"/>
<path d="M300.0,250.0 C372.0,250.0 428.0,213.8 500.0,213.8"/>
<path d="M300.0,250.0 C372.0,250.0 428.0,238.6 500.0,238.6"/>
<path d="M300.0,250.0 C372.0,250.0 428.0,263.3 500.0,263.3"/>
<path d="M300.0,250.0 C372.0,250.0 428.0,288.1 500.0,288.1"/>
<path d="M300.0,250.0 C372.0,250.0 428.0,312.9 500.0,312.9"/>
<path d="M300.0,250.0 C372.0,250.0 428.0,337.6 500.0,337.6"/>
<path d="M300.0,250.0 C372.0,250.0 428.0,362.4 500.0,362.4"/>
<path d="M300.0,250.0 C372.0,250.0 428.0,387.1 500.0,387.1"/>
<path d="M300.0,250.0 C372.0,250.0 428.0,411.9 500.0,411.9"/>
<path d="M300.0,250.0 C372.0,250.0 428.0,436.7 500.0,436.7"/>
<path d="M300.0,250.0 C372.0,250.0 428.0,461.4 500.0,461.4"/>
<path d="M300.0,250.0 C372.0,250.0 428.0,486.2 500.0,486.2"/>
<path d="M300.0,250.0 C372.0,250.0 428.0,511.0 500.0,511.0"/>
<path d="M300.0,250.0 C372.0,250.0 428.0,535.7 500.0,535.7"/>
<path d="M300.0,250.0 C372.0,250.0 428.0,560.5 500.0,560.5"/>
<path d="M300.0,250.0 C372.0,250.0 428.0,585.2 500.0,585.2"/>
<path d="M300.0,250.0 C372.0,250.0 428.0,610.0 500.0,610.0"/>
<path d="M300.0,290.0 C372.0,290.0 428.0,90.0 500.0,90.0"/>
<path d="M300.0,290.0 C372.0,290.0 428.0,114.8 500.0,114.8"/>
<path d="M300.0,290.0 C372.0,290.0 428.0,139.5 500.0,139.5"/>
<path d="M300.0,290.0 C372.0,290.0 428.0,164.3 500.0,164.3"/>
<path d="M300.0,290.0 C372.0,290.0 428.0,189.0 500.0,189.0"/>
<path d="M300.0,290.0 C372.0,290.0 428.0,213.8 500.0,213.8"/>
<path d="M300.0,290.0 C372.0,290.0 428.0,238.6 500.0,238.6"/>
<path d="M300.0,290.0 C372.0,290.0 428.0,263.3 500.0,263.3"/>
<path d="M300.0,290.0 C372.0,290.0 428.0,288.1 500.0,288.1"/>
<path d="M300.0,290.0 C372.0,290.0 428.0,312.9 500.0,312.9"/>
<path d="M300.0,290.0 C372.0,290.0 428.0,337.6 500.0,337.6"/>
<path d="M300.0,290.0 C372.0,290.0 428.0,362.4 500.0,362.4"/>
<path d="M300.0,290.0 C372.0,290.0 428.0,387.1 500.0,387.1"/>
<path d="M300.0,290.0 C372.0,290.0 428.0,411.9 500.0,411.9"/>
<path d="M300.0,290.0 C372.0,290.0 428.0,436.7 500.0,436.7"/>
<path d="M300.0,290.0 C372.0,290.0 428.0,461.4 500.0,461.4"/>
<path d="M300.0,290.0 C372.0,290.0 428.0,486.2 500.0,486.2"/>
<path d="M300.0,290.0 C372.0,290.0 428.0,511.0 500.0,511.0"/>
<path d="M300.0,290.0 C372.0,290.0 428.0,535.7 500.0,535.7"/>
<path d="M300.0,290.0 C372.0,290.0 428.0,560.5 500.0,560.5"/>
<path d="M300.0,290.0 C372.0,290.0 428.0,585.2 500.0,585.2"/>
<path d="M300.0,290.0 C372.0,290.0 428.0,610.0 500.0,610.0"/>
<path d="M300.0,330.0 C372.0,330.0 428.0,90.0 500.0,90.0"/>
<path d="M300.0,330.0 C372.0,330.0 428.0,114.8 500.0,114.8"/>
<path d="M300.0,330.0 C372.0,330.0 428.0,139.5 500.0,139.5"/>
<path d="M300.0,330.0 C372.0,330.0 428.0,164.3 500.0,164.3"/>
<path d="M300.0,330.0 C372.0,330.0 428.0,189.0 500.0,189.0"/>
<path d="M300.0,330.0 C372.0,330.0 428.0,213.8 500.0,213.8"/>
<path d="M300.0,330.0 C372.0,330.0 428.0,238.6 500.0,238.6"/>
<path d="M300.0,330.0 C372.0,330.0 428.0,263.3 500.0,263.3"/>
<path d="M300.0,330.0 C372.0,330.0 428.0,288.1 500.0,288.1"/>
<path d="M300.0,330.0 C372.0,330.0 428.0,312.9 500.0,312.9"/>
<path d="M300.0,330.0 C372.0,330.0 428.0,337.6 500.0,337.6"/>
<path d="M300.0,330.0 C372.0,330.0 428.0,362.4 500.0,362.4"/>
<path d="M300.0,330.0 C372.0,330.0 428.0,387.1 500.0,387.1"/>
<path d="M300.0,330.0 C372.0,330.0 428.0,411.9 500.0,411.9"/>
<path d="M300.0,330.0 C372.0,330.0 428.0,436.7 500.0,436.7"/>
<path d="M300.0,330.0 C372.0,330.0 428.0,461.4 500.0,461.4"/>
<path d="M300.0,330.0 C372.0,330.0 428.0,486.2 500.0,486.2"/>
<path d="M300.0,330.0 C372.0,330.0 428.0,511.0 500.0,511.0"/>
<path d="M300.0,330.0 C372.0,330.0 428.0,535.7 500.0,535.7"/>
<path d="M300.0,330.0 C372.0,330.0 428.0,560.5 500.0,560.5"/>
<path d="M300.0,330.0 C372.0,330.0 428.0,585.2 500.0,585.2"/>
<path d="M300.0,330.0 C372.0,330.0 428.0,610.0 500.0,610.0"/>
<path d="M300.0,370.0 C372.0,370.0 428.0,90.0 500.0,90.0"/>
<path d="M300.0,370.0 C372.0,370.0 428.0,114.8 500.0,114.8"/>
<path d="M300.0,370.0 C372.0,370.0 428.0,139.5 500.0,139.5"/>
<path d="M300.0,370.0 C372.0,370.0 428.0,164.3 500.0,164.3"/>
<path d="M300.0,370.0 C372.0,370.0 428.0,189.0 500.0,189.0"/>
<path d="M300.0,370.0 C372.0,370.0 428.0,213.8 500.0,213.8"/>
<path d="M300.0,370.0 C372.0,370.0 428.0,238.6 500.0,238.6"/>
<path d="M300.0,370.0 C372.0,370.0 428.0,263.3 500.0,263.3"/>
<path d="M300.0,370.0 C372.0,370.0 428.0,288.1 500.0,288.1"/>
<path d="M300.0,370.0 C372.0,370.0 428.0,312.9 500.0,312.9"/>
<path d="M300.0,370.0 C372.0,370.0 428.0,337.6 500.0,337.6"/>
<path d="M300.0,370.0 C372.0,370.0 428.0,362.4 500.0,362.4"/>
<path d="M300.0,370.0 C372.0,370.0 428.0,387.1 500.0,387.1"/>
<path d="M300.0,370.0 C372.0,370.0 428.0,411.9 500.0,411.9"/>
<path d="M300.0,370.0 C372.0,370.0 428.0,436.7 500.0,436.7"/>
<path d="M300.0,370.0 C372.0,370.0 428.0,461.4 500.0,461.4"/>
<path d="M300.0,370.0 C372.0,370.0 428.0,486.2 500.0,486.2"/>
<path d="M300.0,370.0 C372.0,370.0 428.0,511.0 500.0,511.0"/>
<path d="M300.0,370.0 C372.0,370.0 428.0,535.7 500.0,535.7"/>
<path d="M300.0,370.0 C372.0,370.0 428.0,560.5 500.0,560.5"/>
<path d="M300.0,370.0 C372.0,370.0 428.0,585.2 500.0,585.2"/>
<path d="M300.0,370.0 C372.0,370.0 428.0,610.0 500.0,610.0"/>
<path d="M300.0,410.0 C372.0,410.0 428.0,90.0 500.0,90.0"/>
<path d="M300.0,410.0 C372.0,410.0 428.0,114.8 500.0,114.8"/>
<path d="M300.0,410.0 C372.0,410.0 428.0,139.5 500.0,139.5"/>
<path d="M300.0,410.0 C372.0,410.0 428.0,164.3 500.0,164.3"/>
<path d="M300.0,410.0 C372.0,410.0 428.0,189.0 500.0,189.0"/>
<path d="M300.0,410.0 C372.0,410.0 428.0,213.8 500.0,213.8"/>
<path d="M300.0,410.0 C372.0,410.0 428.0,238.6 500.0,238.6"/>
<path d="M300.0,410.0 C372.0,410.0 428.0,263.3 500.0,263.3"/>
<path d="M300.0,410.0 C372.0,410.0 428.0,288.1 500.0,288.1"/>
<path d="M300.0,410.0 C372.0,410.0 428.0,312.9 500.0,312.9"/>
<path d="M300.0,410.0 C372.0,410.0 428.0,337.6 500.0,337.6"/>
<path d="M300.0,410.0 C372.0,410.0 428.0,362.4 500.0,362.4"/>
<path d="M300.0,410.0 C372.0,410.0 428.0,387.1 500.0,387.1"/>
<path d="M300.0,410.0 C372.0,410.0 428.0,411.9 500.0,411.9"/>
<path d="M300.0,410.0 C372.0,410.0 428.0,436.7 500.0,436.7"/>
<path d="M300.0,410.0 C372.0,410.0 428.0,461.4 500.0,461.4"/>
<path d="M300.0,410.0 C372.0,410.0 428.0,486.2 500.0,486.2"/>
<path d="M300.0,410.0 C372.0,410.0 428.0,511.0 500.0,511.0"/>
<path d="M300.0,410.0 C372.0,410.0 428.0,535.7 500.0,535.7"/>
<path d="M300.0,410.0 C372.0,410.0 428.0,560.5 500.0,560.5"/>
<path d="M300.0,410.0 C372.0,410.0 428.0,585.2 500.0,585.2"/>
<path d="M300.0,410.0 C372.0,410.0 428.0,610.0 500.0,610.0"/>
<path d="M300.0,450.0 C372.0,450.0 428.0,90.0 500.0,90.0"/>
<path d="M300.0,450.0 C372.0,450.0 428.0,114.8 500.0,114.8"/>
<path d="M300.0,450.0 C372.0,450.0 428.0,139.5 500.0,139.5"/>
<path d="M300.0,450.0 C372.0,450.0 428.0,164.3 500.0,164.3"/>
<path d="M300.0,450.0 C372.0,450.0 428.0,189.0 500.0,189.0"/>
<path d="M300.0,450.0 C372.0,450.0 428.0,213.8 500.0,213.8"/>
<path d="M300.0,450.0 C372.0,450.0 428.0,238.6 500.0,238.6"/>
<path d="M300.0,450.0 C372.0,450.0 428.0,263.3 500.0,263.3"/>
<path d="M300.0,450.0 C372.0,450.0 428.0,288.1 500.0,288.1"/>
<path d="M300.0,450.0 C372.0,450.0 428.0,312.9 500.0,312.9"/>
<path d="M300.0,450.0 C372.0,450.0 428.0,337.6 500.0,337.6"/>
<path d="M300.0,450.0 C372.0,450.0 428.0,362.4 500.0,362.4"/>
<path d="M300.0,450.0 C372.0,450.0 428.0,387.1 500.0,387.1"/>
<path d="M300.0,450.0 C372.0,450.0 428.0,411.9 500.0,411.9"/>
<path d="M300.0,450.0 C372.0,450.0 428.0,436.7 500.0,436.7"/>
<path d="M300.0,450.0 C372.0,450.0 428.0,461.4 500.0,461.4"/>
<path d="M300.0,450.0 C372.0,450.0 428.0,486.2 500.0,486.2"/>
<path d="M300.0,450.0 C372.0,450.0 428.0,511.0 500.0,511.0"/>
<path d="M300.0,450.0 C372.0,450.0 428.0,535.7 500.0,535.7"/>
<path d="M300.0,450.0 C372.0,450.0 428.0,560.5 500.0,560.5"/>
<path d="M300.0,450.0 C372.0,450.0 428.0,585.2 500.0,585.2"/>
<path d="M300.0,450.0 C372.0,450.0 428.0,610.0 500.0,610.0"/>
<path d="M300.0,490.0 C372.0,490.0 428.0,90.0 500.0,90.0"/>
<path d="M300.0,490.0 C372.0,490.0 428.0,114.8 500.0,114.8"/>
<path d="M300.0,490.0 C372.0,490.0 428.0,139.5 500.0,139.5"/>
<path d="M300.0,490.0 C372.0,490.0 428.0,164.3 500.0,164.3"/>
<path d="M300.0,490.0 C372.0,490.0 428.0,189.0 500.0,189.0"/>
<path d="M300.0,490.0 C372.0,490.0 428.0,213.8 500.0,213.8"/>
<path d="M300.0,490.0 C372.0,490.0 428.0,238.6 500.0,238.6"/>
<path d="M300.0,490.0 C372.0,490.0 428.0,263.3 500.0,263.3"/>
<path d="M300.0,490.0 C372.0,490.0 428.0,288.1 500.0,288.1"/>
<path d="M300.0,490.0 C372.0,490.0 428.0,312.9 500.0,312.9"/>
<path d="M300.0,490.0 C372.0,490.0 428.0,337.6 500.0,337.6"/>
<path d="M300.0,490.0 C372.0,490.0 428.0,362.4 500.0,362.4"/>
<path d="M300.0,490.0 C372.0,490.0 428.0,387.1 500.0,387.1"/>
<path d="M300.0,490.0 C372.0,490.0 428.0,411.9 500.0,411.9"/>
<path d="M300.0,490.0 C372.0,490.0 428.0,436.7 500.0,436.7"/>
<path d="M300.0,490.0 C372.0,490.0 428.0,461.4 500.0,461.4"/>
<path d="M300.0,490.0 C372.0,490.0 428.0,486.2 500.0,486.2"/>
<path d="M300.0,490.0 C372.0,490.0 428.0,511.0 500.0,511.0"/>
<path d="M300.0,490.0 C372.0,490.0 428.0,535.7 500.0,535.7"/>
<path d="M300.0,490.0 C372.0,490.0 428.0,560.5 500.0,560.5"/>
<path d="M300.0,490.0 C372.0,490.0 428.0,585.2 500.0,585.2"/>
<path d="M300.0,490.0 C372.0,490.0 428.0,610.0 500.0,610.0"/>
<path d="M300.0,530.0 C372.0,530.0 428.0,90.0 500.0,90.0"/>
<path d="M300.0,530.0 C372.0,530.0 428.0,114.8 500.0,114.8"/>
<path d="M300.0,530.0 C372.0,530.0 428.0,139.5 500.0,139.5"/>
<path d="M300.0,530.0 C372.0,530.0 428.0,164.3 500.0,164.3"/>
<path d="M300.0,530.0 C372.0,530.0 428.0,189.0 500.0,189.0"/>
<path d="M300.0,530.0 C372.0,530.0 428.0,213.8 500.0,213.8"/>
<path d="M300.0,530.0 C372.0,530.0 428.0,238.6 500.0,238.6"/>
<path d="M300.0,530.0 C372.0,530.0 428.0,263.3 500.0,263.3"/>
<path d="M300.0,530.0 C372.0,530.0 428.0,288.1 500.0,288.1"/>
<path d="M300.0,530.0 C372.0,530.0 428.0,312.9 500.0,312.9"/>
<path d="M300.0,530.0 C372.0,530.0 428.0,337.6 500.0,337.6"/>
<path d="M300.0,530.0 C372.0,530.0 428.0,362.4 500.0,362.4"/>
<path d="M300.0,530.0 C372.0,530.0 428.0,387.1 500.0,387.1"/>
<path d="M300.0,530.0 C372.0,530.0 428.0,411.9 500.0,411.9"/>
<path d="M300.0,530.0 C372.0,530.0 428.0,436.7 500.0,436.7"/>
<path d="M300.0,530.0 C372.0,530.0 428.0,461.4 500.0,461.4"/>
<path d="M300.0,530.0 C372.0,530.0 428.0,486.2 500.0,486.2"/>
<path d="M300.0,530.0 C372.0,530.0 428.0,511.0 500.0,511.0"/>
<path d="M300.0,530.0 C372.0,530.0 428.0,535.7 500.0,535.7"/>
<path d="M300.0,530.0 C372.0,530.0 428.0,560.5 500.0,560.5"/>
<path d="M300.0,530.0 C372.0,530.0 428.0,585.2 500.0,585.2"/>
<path d="M300.0,530.0 C372.0,530.0 428.0,610.0 500.0,610.0"/>
<path d="M300.0,570.0 C372.0,570.0 428.0,90.0 500.0,90.0"/>
<path d="M300.0,570.0 C372.0,570.0 428.0,114.8 500.0,114.8"/>
<path d="M300.0,570.0 C372.0,570.0 428.0,139.5 500.0,139.5"/>
<path d="M300.0,570.0 C372.0,570.0 428.0,164.3 500.0,164.3"/>
<path d="M300.0,570.0 C372.0,570.0 428.0,189.0 500.0,189.0"/>
<path d="M300.0,570.0 C372.0,570.0 428.0,213.8 500.0,213.8"/>
<path d="M300.0,570.0 C372.0,570.0 428.0,238.6 500.0,238.6"/>
<path d="M300.0,570.0 C372.0,570.0 428.0,263.3 500.0,263.3"/>
<path d="M300.0,570.0 C372.0,570.0 428.0,288.1 500.0,288.1"/>
<path d="M300.0,570.0 C372.0,570.0 428.0,312.9 500.0,312.9"/>
<path d="M300.0,570.0 C372.0,570.0 428.0,337.6 500.0,337.6"/>
<path d="M300.0,570.0 C372.0,570.0 428.0,362.4 500.0,362.4"/>
<path d="M300.0,570.0 C372.0,570.0 428.0,387.1 500.0,387.1"/>
<path d="M300.0,570.0 C372.0,570.0 428.0,411.9 500.0,411.9"/>
<path d="M300.0,570.0 C372.0,570.0 428.0,436.7 500.0,436.7"/>
<path d="M300.0,570.0 C372.0,570.0 428.0,461.4 500.0,461.4"/>
<path d="M300.0,570.0 C372.0,570.0 428.0,486.2 500.0,486.2"/>
<path d="M300.0,570.0 C372.0,570.0 428.0,511.0 500.0,511.0"/>
<path d="M300.0,570.0 C372.0,570.0 428.0,535.7 500.0,535.7"/>
<path d="M300.0,570.0 C372.0,570.0 428.0,560.5 500.0,560.5"/>
<path d="M300.0,570.0 C372.0,570.0 428.0,585.2 500.0,585.2"/>
<path d="M300.0,570.0 C372.0,570.0 428.0,610.0 500.0,610.0"/>
<path d="M300.0,610.0 C372.0,610.0 428.0,90.0 500.0,90.0"/>
<path d="M300.0,610.0 C372.0,610.0 428.0,114.8 500.0,114.8"/>
<path d="M300.0,610.0 C372.0,610.0 428.0,139.5 500.0,139.5"/>
<path d="M300.0,610.0 C372.0,610.0 428.0,164.3 500.0,164.3"/>
<path d="M300.0,610.0 C372.0,610.0 428.0,189.0 500.0,189.0"/>
<path d="M300.0,610.0 C372.0,610.0 428.0,213.8 500.0,213.8"/>
<path d="M300.0,610.0 C372.0,610.0 428.0,238.6 500.0,238.6"/>
<path d="M300.0,610.0 C372.0,610.0 428.0,263.3 500.0,263.3"/>
<path d="M300.0,610.0 C372.0,610.0 428.0,288.1 500.0,288.1"/>
<path d="M300.0,610.0 C372.0,610.0 428.0,312.9 500.0,312.9"/>
<path d="M300.0,610.0 C372.0,610.0 428.0,337.6 500.0,337.6"/>
<path d="M300.0,610.0 C372.0,610.0 428.0,362.4 500.0,362.4"/>
<path d="M300.0,610.0 C372.0,610.0 428.0,387.1 500.0,387.1"/>
<path d="M300.0,610.0 C372.0,610.0 428.0,411.9 500.0,411.9"/>
<path d="M300.0,610.0 C372.0,610.0 428.0,436.7 500.0,436.7"/>
<path d="M300.0,610.0 C372.0,610.0 428.0,461.4 500.0,461.4"/>
<path d="M300.0,610.0 C372.0,610.0 428.0,486.2 500.0,486.2"/>
<path d="M300.0,610.0 C372.0,610.0 428.0,511.0 500.0,511.0"/>
<path d="M300.0,610.0 C372.0,610.0 428.0,535.7 500.0,535.7"/>
<path d="M300.0,610.0 C372.0,610.0 428.0,560.5 500.0,560.5"/>
<path d="M300.0,610.0 C372.0,610.0 428.0,585.2 500.0,585.2"/>
<path d="M300.0,610.0 C372.0,610.0 428.0,610.0 500.0,610.0"/>
<path d="M500.0,90.0 C572.0,90.0 628.0,90.0 700.0,90.0"/>
<path d="M500.0,90.0 C572.0,90.0 628.0,114.8 700.0,114.8"/>
<path d="M500.0,90.0 C572.0,90.0 628.0,139.5 700.0,139.5"/>
<path d="M500.0,90.0 C572.0,90.0 628.0,164.3 700.0,164.3"/>
<path d="M500.0,90.0 C572.0,90.0 628.0,189.0 700.0,189.0"/>
<path d="M500.0,90.0 C572.0,90.0 628.0,213.8 700.0,213.8"/>
<path d="M500.0,90.0 C572.0,90.0 628.0,238.6 700.0,238.6"/>
<path d="M500.0,90.0 C572.0,90.0 628.0,263.3 700.0,263.3"/>
<path d="M500.0,90.0 C572.0,90.0 628.0,288.1 700.0,288.1"/>
<path d="M500.0,90.0 C572.0,90.0 628.0,312.9 700.0,312.9"/>
<path d="M500.0,90.0 C572.0,90.0 628.0,337.6 700.0,337.6"/>
<path d="M500.0,90.0 C572.0,90.0 628.0,362.4 700.0,362.4"/>
<path d="M500.0,90.0 C572.0,90.0 628.0,387.1 700.0,387.1"/>
<path d="M500.0,90.0 C572.0,90.0 628.0,411.9 700.0,411.9"/>
<path d="M500.0,90.0 C572.0,90.0 628.0,436.7 700.0,436.7"/>
<path d="M500.0,90.0 C572.0,90.0 628.0,461.4 700.0,461.4"/>
<path d="M500.0,90.0 C572.0,90.0 628.0,486.2 700.0,486.2"/>
<path d="M500.0,90.0 C572.0,90.0 628.0,511.0 700.0,511.0"/>
<path d="M500.0,90.0 C572.0,90.0 628.0,535.7 700.0,535.7"/>
<path d="M500.0,90.0 C572.0,90.0 628.0,560.5 700.0,560.5"/>
<path d="M500.0,90.0 C572.0,90.0 628.0,585.2 700.0,585.2"/>
<path d="M500.0,90.0 C572.0,90.0 628.0,610.0 700.0,610.0"/>
<path d="M500.0,114.8 C572.0,114.8 628.0,90.0 700.0,90.0"/>
<path d="M500.0,114.8 C572.0,114.8 628.0,114.8 700.0,114.8"/>
<path d="M500.0,114.8 C572.0,114.8 628.0,139.5 700.0,139.5"/>
<path d="M500.0,114.8 C572.0,114.8 628.0,164.3 700.0,164.3"/>
<path d="M500.0,114.8 C572.0,114.8 628.0,189.0 700.0,189.0"/>
<path d="M500.0,114.8 C572.0,114.8 628.0,213.8 700.0,213.8"/>
<path d="M500.0,114.8 C572.0,114.8 628.0,238.6 700.0,238.6"/>
<path d="M500.0,114.8 C572.0,114.8 628.0,263.3 700.0,263.3"/>
<path d="M500.0,114.8 C572.0,114.8 628.0,288.1 700.0,288.1"/>
<path d="M500.0,114.8 C572.0,114.8 628.0,312.9 700.0,312.9"/>
<path d="M500.0,114.8 C572.0,114.8 628.0,337.6 700.0,337.6"/>
<path d="M500.0,114.8 C572.0,114.8 628.0,362.4 700.0,362.4"/>
<path d="M500.0,114.8 C572.0,114.8 628.0,387.1 700.0,387.1"/>
<path d="M500.0,114.8 C572.0,114.8 628.0,411.9 700.0,411.9"/>
<path d="M500.0,114.8 C572.0,114.8 628.0,436.7 700.0,436.7"/>
<path d="M500.0,114.8 C572.0,114.8 628.0,461.4 700.0,461.4"/>
<path d="M500.0,114.8 C572.0,114.8 628.0,486.2 700.0,486.2"/>
<path d="M500.0,114.8 C572.0,114.8 628.0,511.0 700.0,511.0"/>
<path d="M500.0,114.8 C572.0,114.8 628.0,535.7 700.0,535.7"/>
<path d="M500.0,114.8 C572.0,114.8 628.0,560.5 700.0,560.5"/>
<path d="M500.0,114.8 C572.0,114.8 628.0,585.2 700.0,585.2"/>
<path d="M500.0,114.8 C572.0,114.8 628.0,610.0 700.0,610.0"/>
<path d="M500.0,139.5 C572.0,139.5 628.0,90.0 700.0,90.0"/>
<path d="M500.0,139.5 C572.0,139.5 628.0,114.8 700.0,114.8"/>
<path d="M500.0,139.5 C572.0,139.5 628.0,139.5 700.0,139.5"/>
<path d="M500.0,139.5 C572.0,139.5 628.0,164.3 700.0,164.3"/>
<path d="M500.0,139.5 C572.0,139.5 628.0,189.0 700.0,189.0"/>
<path d="M500.0,139.5 C572.0,139.5 628.0,213.8 700.0,213.8"/>
<path d="M500.0,139.5 C572.0,139.5 628.0,238.6 700.0,238.6"/>
<path d="M500.0,139.5 C572.0,139.5 628.0,263.3 700.0,263.3"/>
<path d="M500.0,139.5 C572.0,139.5 628.0,288.1 700.0,288.1"/>
<path d="M500.0,139.5 C572.0,139.5 628.0,312.9 700.0,312.9"/>
<path d="M500.0,139.5 C572.0,139.5 628.0,337.6 700.0,337.6"/>
<path d="M500.0,139.5 C572.0,139.5 628.0,362.4 700.0,362.4"/>
<path d="M500.0,139.5 C572.0,139.5 628.0,387.1 700.0,387.1"/>
<path d="M500.0,139.5 C572.0,139.5 628.0,411.9 700.0,411.9"/>
<path d="M500.0,139.5 C572.0,139.5 628.0,436.7 700.0,436.7"/>
<path d="M500.0,139.5 C572.0,139.5 628.0,461.4 700.0,461.4"/>
<path d="M500.0,139.5 C572.0,139.5 628.0,486.2 700.0,486.2"/>
<path d="M500.0,139.5 C572.0,139.5 628.0,511.0 700.0,511.0"/>
<path d="M500.0,139.5 C572.0,139.5 628.0,535.7 700.0,535.7"/>
<path d="M500.0,139.5 C572.0,139.5 628.0,560.5 700.0,560.5"/>
<path d="M500.0,139.5 C572.0,139.5 628.0,585.2 700.0,585.2"/>
<path d="M500.0,139.5 C572.0,139.5 628.0,610.0 700.0,610.0"/>
<path d="M500.0,164.3 C572.0,164.3 628.0,90.0 700.0,90.0"/>
<path d="M500.0,164.3 C572.0,164.3 628.0,114.8 700.0,114.8"/>
<path d="M500.0,164.3 C572.0,164.3 628.0,139.5 700.0,139.5"/>
<path d="M500.0,164.3 C572.0,164.3 628.0,164.3 700.0,164.3"/>
<path d="M500.0,164.3 C572.0,164.3 628.0,189.0 700.0,189.0"/>
<path d="M500.0,164.3 C572.0,164.3 628.0,213.8 700.0,213.8"/>
<path d="M500.0,164.3 C572.0,164.3 628.0,238.6 700.0,238.6"/>
<path d="M500.0,164.3 C572.0,164.3 628.0,263.3 700.0,263.3"/>
<path d="M500.0,164.3 C572.0,164.3 628.0,288.1 700.0,288.1"/>
<path d="M500.0,164.3 C572.0,164.3 628.0,312.9 700.0,312.9"/>
<path d="M500.0,164.3 C572.0,164.3 628.0,337.6 700.0,337.6"/>
<path d="M500.0,164.3 C572.0,164.3 628.0,362.4 700.0,362.4"/>
<path d="M500.0,164.3 C572.0,164.3 628.0,387.1 700.0,387.1"/>
<path d="M500.0,164.3 C572.0,164.3 628.0,411.9 700.0,411.9"/>
<path d="M500.0,164.3 C572.0,164.3 628.0,436.7 700.0,436.7"/>
<path d="M500.0,164.3 C572.0,164.3 628.0,461.4 700.0,461.4"/>
<path d="M500.0,164.3 C572.0,164.3 628.0,486.2 700.0,486.2"/>
<path d="M500.0,164.3 C572.0,164.3 628.0,511.0 700.0,511.0"/>
<path d="M500.0,164.3 C572.0,164.3 628.0,535.7 700.0,535.7"/>
<path d="M500.0,164.3 C572.0,164.3 628.0,560.5 700.0,560.5"/>
<path d="M500.0,164.3 C572.0,164.3 628.0,585.2 700.0,585.2"/>
<path d="M500.0,164.3 C572.0,164.3 628.0,610.0 700.0,610.0"/>
<path d="M500.0,189.0 C572.0,189.0 628.0,90.0 700.0,90.0"/>
<path d="M500.0,189.0 C572.0,189.0 628.0,114.8 700.0,114.8"/>
<path d="M500.0,189.0 C572.0,189.0 628.0,139.5 700.0,139.5"/>
<path d="M500.0,189.0 C572.0,189.0 628.0,164.3 700.0,164.3"/>
<path d="M500.0,189.0 C572.0,189.0 628.0,189.0 700.0,189.0"/>
<path d="M500.0,189.0 C572.0,189.0 628.0,213.8 700.0,213.8"/>
<path d="M500.0,189.0 C572.0,189.0 628.0,238.6 700.0,238.6"/>
<path d="M500.0,189.0 C572.0,189.0 628.0,263.3 700.0,263.3"/>
<path d="M500.0,189.0 C572.0,189.0 628.0,288.1 700.0,288.1"/>
<path d="M500.0,189.0 C572.0,189.0 628.0,312.9 700.0,312.9"/>
<path d="M500.0,189.0 C572.0,189.0 628.0,337.6 700.0,337.6"/>
<path d="M500.0,189.0 C572.0,189.0 628.0,362.4 700.0,362.4"/>
<path d="M500.0,189.0 C572.0,189.0 628.0,387.1 700.0,387.1"/>
<path d="M500.0,189.0 C572.0,189.0 628.0,411.9 700.0,411.9"/>
<path d="M500.0,189.0 C572.0,189.0 628.0,436.7 700.0,436.7"/>
<path d="M500.0,189.0 C572.0,189.0 628.0,461.4 700.0,461.4"/>
<path d="M500.0,189.0 C572.0,189.0 628.0,486.2 700.0,486.2"/>
<path d="M500.0,189.0 C572.0,189.0 628.0,511.0 700.0,511.0"/>
<path d="M500.0,189.0 C572.0,189.0 628.0,535.7 700.0,535.7"/>
<path d="M500.0,189.0 C572.0,189.0 628.0,560.5 700.0,560.5"/>
<path d="M500.0,189.0 C572.0,189.0 628.0,585.2 700.0,585.2"/>
<path d="M500.0,189.0 C572.0,189.0 628.0,610.0 700.0,610.0"/>
<path d="M500.0,213.8 C572.0,213.8 628.0,90.0 700.0,90.0"/>
<path d="M500.0,213.8 C572.0,213.8 628.0,114.8 700.0,114.8"/>
<path d="M500.0,213.8 C572.0,213.8 628.0,139.5 700.0,139.5"/>
<path d="M500.0,213.8 C572.0,213.8 628.0,164.3 700.0,164.3"/>
<path d="M500.0,213.8 C572.0,213.8 628.0,189.0 700.0,189.0"/>
<path d="M500.0,213.8 C572.0,213.8 628.0,213.8 700.0,213.8"/>
<path d="M500.0,213.8 C572.0,213.8 628.0,238.6 700.0,238.6"/>
<path d="M500.0,213.8 C572.0,213.8 628.0,263.3 700.0,263.3"/>
<path d="M500.0,213.8 C572.0,213.8 628.0,288.1 700.0,288.1"/>
<path d="M500.0,213.8 C572.0,213.8 628.0,312.9 700.0,312.9"/>
<path d="M500.0,213.8 C572.0,213.8 628.0,337.6 700.0,337.6"/>
<path d="M500.0,213.8 C572.0,213.8 628.0,362.4 700.0,362.4"/>
<path d="M500.0,213.8 C572.0,213.8 628.0,387.1 700.0,387.1"/>
<path d="M500.0,213.8 C572.0,213.8 628.0,411.9 700.0,411.9"/>
<path d="M500.0,213.8 C572.0,213.8 628.0,436.7 700.0,436.7"/>
<path d="M500.0,213.8 C572.0,213.8 628.0,461.4 700.0,461.4"/>
<path d="M500.0,213.8 C572.0,213.8 628.0,486.2 700.0,486.2"/>
<path d="M500.0,213.8 C572.0,213.8 628.0,511.0 700.0,511.0"/>
<path d="M500.0,213.8 C572.0,213.8 628.0,535.7 700.0,535.7"/>
<path d="M500.0,213.8 C572.0,213.8 628.0,560.5 700.0,560.5"/>
<path d="M500.0,213.8 C572.0,213.8 628.0,585.2 700.0,585.2"/>
<path d="M500.0,213.8 C572.0,213.8 628.0,610.0 700.0,610.0"/>
<path d="M500.0,238.6 C572.0,238.6 628.0,90.0 700.0,90.0"/>
<path d="M500.0,238.6 C572.0,238.6 628.0,114.8 700.0,114.8"/>
<path d="M500.0,238.6 C572.0,238.6 628.0,139.5 700.0,139.5"/>
<path d="M500.0,238.6 C572.0,238.6 628.0,164.3 700.0,164.3"/>
<path d="M500.0,238.6 C572.0,238.6 628.0,189.0 700.0,189.0"/>
<path d="M500.0,238.6 C572.0,238.6 628.0,213.8 700.0,213.8"/>
<path d="M500.0,238.6 C572.0,238.6 628.0,238.6 700.0,238.6"/>
<path d="M500.0,238.6 C572.0,238.6 628.0,263.3 700.0,263.3"/>
<path d="M500.0,238.6 C572.0,238.6 628.0,288.1 700.0,288.1"/>
<path d="M500.0,238.6 C572.0,238.6 628.0,312.9 700.0,312.9"/>
<path d="M500.0,238.6 C572.0,238.6 628.0,337.6 700.0,337.6"/>
<path d="M500.0,238.6 C572.0,238.6 628.0,362.4 700.0,362.4"/>
<path d="M500.0,238.6 C572.0,238.6 628.0,387.1 700.0,387.1"/>
<path d="M500.0,238.6 C572.0,238.6 628.0,411.9 700.0,411.9"/>
<path d="M500.0,238.6 C572.0,238.6 628.0,436.7 700.0,436.7"/>
<path d="M500.0,238.6 C572.0,238.6 628.0,461.4 700.0,461.4"/>
<path d="M500.0,238.6 C572.0,238.6 628.0,486.2 700.0,486.2"/>
<path d="M500.0,238.6 C572.0,238.6 628.0,511.0 700.0,511.0"/>
<path d="M500.0,238.6 C572.0,238.6 628.0,535.7 700.0,535.7"/>
<path d="M500.0,238.6 C572.0,238.6 628.0,560.5 700.0,560.5"/>
<path d="M500.0,238.6 C572.0,238.6 628.0,585.2 700.0,585.2"/>
<path d="M500.0,238.6 C572.0,238.6 628.0,610.0 700.0,610.0"/>
<path d="M500.0,263.3 C572.0,263.3 628.0,90.0 700.0,90.0"/>
<path d="M500.0,263.3 C572.0,263.3 628.0,114.8 700.0,114.8"/>
<path d="M500.0,263.3 C572.0,263.3 628.0,139.5 700.0,139.5"/>
<path d="M500.0,263.3 C572.0,263.3 628.0,164.3 700.0,164.3"/>
<path d="M500.0,263.3 C572.0,263.3 628.0,189.0 700.0,189.0"/>
<path d="M500.0,263.3 C572.0,263.3 628.0,213.8 700.0,213.8"/>
<path d="M500.0,263.3 C572.0,263.3 628.0,238.6 700.0,238.6"/>
<path d="M500.0,263.3 C572.0,263.3 628.0,263.3 700.0,263.3"/>
<path d="M500.0,263.3 C572.0,263.3 628.0,288.1 700.0,288.1"/>
<path d="M500.0,263.3 C572.0,263.3 628.0,312.9 700.0,312.9"/>
<path d="M500.0,263.3 C572.0,263.3 628.0,337.6 700.0,337.6"/>
<path d="M500.0,263.3 C572.0,263.3 628.0,362.4 700.0,362.4"/>
<path d="M500.0,263.3 C572.0,263.3 628.0,387.1 700.0,387.1"/>
<path d="M500.0,263.3 C572.0,263.3 628.0,411.9 700.0,411.9"/>
<path d="M500.0,263.3 C572.0,263.3 628.0,436.7 700.0,436.7"/>
<path d="M500.0,263.3 C572.0,263.3 628.0,461.4 700.0,461.4"/>
<path d="M500.0,263.3 C572.0,263.3 628.0,486.2 700.0,486.2"/>
<path d="M500.0,263.3 C572.0,263.3 628.0,511.0 700.0,511.0"/>
<path d="M500.0,263.3 C572.0,263.3 628.0,535.7 700.0,535.7"/>
<path d="M500.0,263.3 C572.0,263.3 628.0,560.5 700.0,560.5"/>
<path d="M500.0,263.3 C572.0,263.3 628.0,585.2 700.0,585.2"/>
<path d="M500.0,263.3 C572.0,263.3 628.0,610.0 700.0,610.0"/>
<path d="M500.0,288.1 C572.0,288.1 628.0,90.0 700.0,90.0"/>
<path d="M500.0,288.1 C572.0,288.1 628.0,114.8 700.0,114.8"/>
<path d="M500.0,288.1 C572.0,288.1 628.0,139.5 700.0,139.5"/>
<path d="M500.0,288.1 C572.0,288.1 628.0,164.3 700.0,164.3"/>
<path d="M500.0,288.1 C572.0,288.1 628.0,189.0 700.0,189.0"/>
<path d="M500.0,288.1 C572.0,288.1 628.0,213.8 700.0,213.8"/>
<path d="M500.0,288.1 C572.0,288.1 628.0,238.6 700.0,238.6"/>
<path d="M500.0,288.1 C572.0,288.1 628.0,263.3 700.0,263.3"/>
<path d="M500.0,288.1 C572.0,288.1 628.0,288.1 700.0,288.1"/>
<path d="M500.0,288.1 C572.0,288.1 628.0,312.9 700.0,312.9"/>
<path d="M500.0,288.1 C572.0,288.1 628.0,337.6 700.0,337.6"/>
<path d="M500.0,288.1 C572.0,288.1 628.0,362.4 700.0,362.4"/>
<path d="M500.0,288.1 C572.0,288.1 628.0,387.1 700.0,387.1"/>
<path d="M500.0,288.1 C572.0,288.1 628.0,411.9 700.0,411.9"/>
<path d="M500.0,288.1 C572.0,288.1 628.0,436.7 700.0,436.7"/>
<path d="M500.0,288.1 C572.0,288.1 628.0,461.4 700.0,461.4"/>
<path d="M500.0,288.1 C572.0,288.1 628.0,486.2 700.0,486.2"/>
<path d="M500.0,288.1 C572.0,288.1 628.0,511.0 700.0,511.0"/>
<path d="M500.0,288.1 C572.0,288.1 628.0,535.7 700.0,535.7"/>
<path d="M500.0,288.1 C572.0,288.1 628.0,560.5 700.0,560.5"/>
<path d="M500.0,288.1 C572.0,288.1 628.0,585.2 700.0,585.2"/>
<path d="M500.0,288.1 C572.0,288.1 628.0,610.0 700.0,610.0"/>
<path d="M500.0,312.9 C572.0,312.9 628.0,90.0 700.0,90.0"/>
<path d="M500.0,312.9 C572.0,312.9 628.0,114.8 700.0,114.8"/>
<path d="M500.0,312.9 C572.0,312.9 628.0,139.5 700.0,139.5"/>
<path d="M500.0,312.9 C572.0,312.9 628.0,164.3 700.0,164.3"/>
<path d="M500.0,312.9 C572.0,312.9 628.0,189.0 700.0,189.0"/>
<path d="M500.0,312.9 C572.0,312.9 628.0,213.8 700.0,213.8"/>
<path d="M500.0,312.9 C572.0,312.9 628.0,238.6 700.0,238.6"/>
<path d="M500.0,312.9 C572.0,312.9 628.0,263.3 700.0,263.3"/>
<path d="M500.0,312.9 C572.0,312.9 628.0,288.1 700.0,288.1"/>
<path d="M500.0,312.9 C572.0,312.9 628.0,312.9 700.0,312.9"/>
<path d="M500.0,312.9 C572.0,312.9 628.0,337.6 700.0,337.6"/>
<path d="M500.0,312.9 C572.0,312.9 628.0,362.4 700.0,362.4"/>
<path d="M500.0,312.9 C572.0,312.9 628.0,387.1 700.0,387.1"/>
<path d="M500.0,312.9 C572.0,312.9 628.0,411.9 700.0,411.9"/>
<path d="M500.0,312.9 C572.0,312.9 628.0,436.7 700.0,436.7"/>
<path d="M500.0,312.9 C572.0,312.9 628.0,461.4 700.0,461.4"/>
<path d="M500.0,312.9 C572.0,312.9 628.0,486.2 700.0,486.2"/>
<path d="M500.0,312.9 C572.0,312.9 628.0,511.0 700.0,511.0"/>
<path d="M500.0,312.9 C572.0,312.9 628.0,535.7 700.0,535.7"/>
<path d="M500.0,312.9 C572.0,312.9 628.0,560.5 700.0,560.5"/>
<path d="M500.0,312.9 C572.0,312.9 628.0,585.2 700.0,585.2"/>
<path d="M500.0,312.9 C572.0,312.9 628.0,610.0 700.0,610.0"/>
<path d="M500.0,337.6 C572.0,337.6 628.0,90.0 700.0,90.0"/>
<path d="M500.0,337.6 C572.0,337.6 628.0,114.8 700.0,114.8"/>
<path d="M500.0,337.6 C572.0,337.6 628.0,139.5 700.0,139.5"/>
<path d="M500.0,337.6 C572.0,337.6 628.0,164.3 700.0,164.3"/>
<path d="M500.0,337.6 C572.0,337.6 628.0,189.0 700.0,189.0"/>
<path d="M500.0,337.6 C572.0,337.6 628.0,213.8 700.0,213.8"/>
<path d="M500.0,337.6 C572.0,337.6 628.0,238.6 700.0,238.6"/>
<path d="M500.0,337.6 C572.0,337.6 628.0,263.3 700.0,263.3"/>
<path d="M500.0,337.6 C572.0,337.6 628.0,288.1 700.0,288.1"/>
<path d="M500.0,337.6 C572.0,337.6 628.0,312.9 700.0,312.9"/>
<path d="M500.0,337.6 C572.0,337.6 628.0,337.6 700.0,337.6"/>
<path d="M500.0,337.6 C572.0,337.6 628.0,362.4 700.0,362.4"/>
<path d="M500.0,337.6 C572.0,337.6 628.0,387.1 700.0,387.1"/>
<path d="M500.0,337.6 C572.0,337.6 628.0,411.9 700.0,411.9"/>
<path d="M500.0,337.6 C572.0,337.6 628.0,436.7 700.0,436.7"/>
<path d="M500.0,337.6 C572.0,337.6 628.0,461.4 700.0,461.4"/>
<path d="M500.0,337.6 C572.0,337.6 628.0,486.2 700.0,486.2"/>
<path d="M500.0,337.6 C572.0,337.6 628.0,511.0 700.0,511.0"/>
<path d="M500.0,337.6 C572.0,337.6 628.0,535.7 700.0,535.7"/>
<path d="M500.0,337.6 C572.0,337.6 628.0,560.5 700.0,560.5"/>
<path d="M500.0,337.6 C572.0,337.6 628.0,585.2 700.0,585.2"/>
<path d="M500.0,337.6 C572.0,337.6 628.0,610.0 700.0,610.0"/>
<path d="M500.0,362.4 C572.0,362.4 628.0,90.0 700.0,90.0"/>
<path d="M500.0,362.4 C572.0,362.4 628.0,114.8 700.0,114.8"/>
<path d="M500.0,362.4 C572.0,362.4 628.0,139.5 700.0,139.5"/>
<path d="M500.0,362.4 C572.0,362.4 628.0,164.3 700.0,164.3"/>
<path d="M500.0,362.4 C572.0,362.4 628.0,189.0 700.0,189.0"/>
<path d="M500.0,362.4 C572.0,362.4 628.0,213.8 700.0,213.8"/>
<path d="M500.0,362.4 C572.0,362.4 628.0,238.6 700.0,238.6"/>
<path d="M500.0,362.4 C572.0,362.4 628.0,263.3 700.0,263.3"/>
<path d="M500.0,362.4 C572.0,362.4 628.0,288.1 700.0,288.1"/>
<path d="M500.0,362.4 C572.0,362.4 628.0,312.9 700.0,312.9"/>
<path d="M500.0,362.4 C572.0,362.4 628.0,337.6 700.0,337.6"/>
<path d="M500.0,362.4 C572.0,362.4 628.0,362.4 700.0,362.4"/>
<path d="M500.0,362.4 C572.0,362.4 628.0,387.1 700.0,387.1"/>
<path d="M500.0,362.4 C572.0,362.4 628.0,411.9 700.0,411.9"/>
<path d="M500.0,362.4 C572.0,362.4 628.0,436.7 700.0,436.7"/>
<path d="M500.0,362.4 C572.0,362.4 628.0,461.4 700.0,461.4"/>
<path d="M500.0,362.4 C572.0,362.4 628.0,486.2 700.0,486.2"/>
<path d="M500.0,362.4 C572.0,362.4 628.0,511.0 700.0,511.0"/>
<path d="M500.0,362.4 C572.0,362.4 628.0,535.7 700.0,535.7"/>
<path d="M500.0,362.4 C572.0,362.4 628.0,560.5 700.0,560.5"/>
<path d="M500.0,362.4 C572.0,362.4 628.0,585.2 700.0,585.2"/>
<path d="M500.0,362.4 C572.0,362.4 628.0,610.0 700.0,610.0"/>
<path d="M500.0,387.1 C572.0,387.1 628.0,90.0 700.0,90.0"/>
<path d="M500.0,387.1 C572.0,387.1 628.0,114.8 700.0,114.8"/>
<path d="M500.0,387.1 C572.0,387.1 628.0,139.5 700.0,139.5"/>
<path d="M500.0,387.1 C572.0,387.1 628.0,164.3 700.0,164.3"/>
<path d="M500.0,387.1 C572.0,387.1 628.0,189.0 700.0,189.0"/>
<path d="M500.0,387.1 C572.0,387.1 628.0,213.8 700.0,213.8"/>
<path d="M500.0,387.1 C572.0,387.1 628.0,238.6 700.0,238.6"/>
<path d="M500.0,387.1 C572.0,387.1 628.0,263.3 700.0,263.3"/>
<path d="M500.0,387.1 C572.0,387.1 628.0,288.1 700.0,288.1"/>
<path d="M500.0,387.1 C572.0,387.1 628.0,312.9 700.0,312.9"/>
<path d="M500.0,387.1 C572.0,387.1 628.0,337.6 700.0,337.6"/>
<path d="M500.0,387.1 C572.0,387.1 628.0,362.4 700.0,362.4"/>
<path d="M500.0,387.1 C572.0,387.1 628.0,387.1 700.0,387.1"/>
<path d="M500.0,387.1 C572.0,387.1 628.0,411.9 700.0,411.9"/>
<path d="M500.0,387.1 C572.0,387.1 628.0,436.7 700.0,436.7"/>
<path d="M500.0,387.1 C572.0,387.1 628.0,461.4 700.0,461.4"/>
<path d="M500.0,387.1 C572.0,387.1 628.0,486.2 700.0,486.2"/>
<path d="M500.0,387.1 C572.0,387.1 628.0,511.0 700.0,511.0"/>
<path d="M500.0,387.1 C572.0,387.1 628.0,535.7 700.0,535.7"/>
<path d="M500.0,387.1 C572.0,387.1 628.0,560.5 700.0,560.5"/>
<path d="M500.0,387.1 C572.0,387.1 628.0,585.2 700.0,585.2"/>
<path d="M500.0,387.1 C572.0,387.1 628.0,610.0 700.0,610.0"/>
<path d="M500.0,411.9 C572.0,411.9 628.0,90.0 700.0,90.0"/>
<path d="M500.0,411.9 C572.0,411.9 628.0,114.8 700.0,114.8"/>
<path d="M500.0,411.9 C572.0,411.9 628.0,139.5 700.0,139.5"/>
<path d="M500.0,411.9 C572.0,411.9 628.0,164.3 700.0,164.3"/>
<path d="M500.0,411.9 C572.0,411.9 628.0,189.0 700.0,189.0"/>
<path d="M500.0,411.9 C572.0,411.9 628.0,213.8 700.0,213.8"/>
<path d="M500.0,411.9 C572.0,411.9 628.0,238.6 700.0,238.6"/>
<path d="M500.0,411.9 C572.0,411.9 628.0,263.3 700.0,263.3"/>
<path d="M500.0,411.9 C572.0,411.9 628.0,288.1 700.0,288.1"/>
<path d="M500.0,411.9 C572.0,411.9 628.0,312.9 700.0,312.9"/>
<path d="M500.0,411.9 C572.0,411.9 628.0,337.6 700.0,337.6"/>
<path d="M500.0,411.9 C572.0,411.9 628.0,362.4 700.0,362.4"/>
<path d="M500.0,411.9 C572.0,411.9 628.0,387.1 700.0,387.1"/>
<path d="M500.0,411.9 C572.0,411.9 628.0,411.9 700.0,411.9"/>
<path d="M500.0,411.9 C572.0,411.9 628.0,436.7 700.0,436.7"/>
<path d="M500.0,411.9 C572.0,411.9 628.0,461.4 700.0,461.4"/>
<path d="M500.0,411.9 C572.0,411.9 628.0,486.2 700.0,486.2"/>
<path d="M500.0,411.9 C572.0,411.9 628.0,511.0 700.0,511.0"/>
<path d="M500.0,411.9 C572.0,411.9 628.0,535.7 700.0,535.7"/>
<path d="M500.0,411.9 C572.0,411.9 628.0,560.5 700.0,560.5"/>
<path d="M500.0,411.9 C572.0,411.9 628.0,585.2 700.0,585.2"/>
<path d="M500.0,411.9 C572.0,411.9 628.0,610.0 700.0,610.0"/>
<path d="M500.0,436.7 C572.0,436.7 628.0,90.0 700.0,90.0"/>
<path d="M500.0,436.7 C572.0,436.7 628.0,114.8 700.0,114.8"/>
<path d="M500.0,436.7 C572.0,436.7 628.0,139.5 700.0,139.5"/>
<path d="M500.0,436.7 C572.0,436.7 628.0,164.3 700.0,164.3"/>
<path d="M500.0,436.7 C572.0,436.7 628.0,189.0 700.0,189.0"/>
<path d="M500.0,436.7 C572.0,436.7 628.0,213.8 700.0,213.8"/>
<path d="M500.0,436.7 C572.0,436.7 628.0,238.6 700.0,238.6"/>
<path d="M500.0,436.7 C572.0,436.7 628.0,263.3 700.0,263.3"/>
<path d="M500.0,436.7 C572.0,436.7 628.0,288.1 700.0,288.1"/>
<path d="M500.0,436.7 C572.0,436.7 628.0,312.9 700.0,312.9"/>
<path d="M500.0,436.7 C572.0,436.7 628.0,337.6 700.0,337.6"/>
<path d="M500.0,436.7 C572.0,436.7 628.0,362.4 700.0,362.4"/>
<path d="M500.0,436.7 C572.0,436.7 628.0,387.1 700.0,387.1"/>
<path d="M500.0,436.7 C572.0,436.7 628.0,411.9 700.0,411.9"/>
<path d="M500.0,436.7 C572.0,436.7 628.0,436.7 700.0,436.7"/>
<path d="M500.0,436.7 C572.0,436.7 628.0,461.4 700.0,461.4"/>
<path d="M500.0,436.7 C572.0,436.7 628.0,486.2 700.0,486.2"/>
<path d="M500.0,436.7 C572.0,436.7 628.0,511.0 700.0,511.0"/>
<path d="M500.0,436.7 C572.0,436.7 628.0,535.7 700.0,535.7"/>
<path d="M500.0,436.7 C572.0,436.7 628.0,560.5 700.0,560.5"/>
<path d="M500.0,436.7 C572.0,436.7 628.0,585.2 700.0,585.2"/>
<path d="M500.0,436.7 C572.0,436.7 628.0,610.0 700.0,610.0"/>
<path d="M500.0,461.4 C572.0,461.4 628.0,90.0 700.0,90.0"/>
<path d="M500.0,461.4 C572.0,461.4 628.0,114.8 700.0,114.8"/>
<path d="M500.0,461.4 C572.0,461.4 628.0,139.5 700.0,139.5"/>
<path d="M500.0,461.4 C572.0,461.4 628.0,164.3 700.0,164.3"/>
<path d="M500.0,461.4 C572.0,461.4 628.0,189.0 700.0,189.0"/>
<path d="M500.0,461.4 C572.0,461.4 628.0,213.8 700.0,213.8"/>
<path d="M500.0,461.4 C572.0,461.4 628.0,238.6 700.0,238.6"/>
<path d="M500.0,461.4 C572.0,461.4 628.0,263.3 700.0,263.3"/>
<path d="M500.0,461.4 C572.0,461.4 628.0,288.1 700.0,288.1"/>
<path d="M500.0,461.4 C572.0,461.4 628.0,312.9 700.0,312.9"/>
<path d="M500.0,461.4 C572.0,461.4 628.0,337.6 700.0,337.6"/>
<path d="M500.0,461.4 C572.0,461.4 628.0,362.4 700.0,362.4"/>
<path d="M500.0,461.4 C572.0,461.4 628.0,387.1 700.0,387.1"/>
<path d="M500.0,461.4 C572.0,461.4 628.0,411.9 700.0,411.9"/>
<path d="M500.0,461.4 C572.0,461.4 628.0,436.7 700.0,436.7"/>
<path d="M500.0,461.4 C572.0,461.4 628.0,461.4 700.0,461.4"/>
<path d="M500.0,461.4 C572.0,461.4 628.0,486.2 700.0,486.2"/>
<path d="M500.0,461.4 C572.0,461.4 628.0,511.0 700.0,511.0"/>
<path d="M500.0,461.4 C572.0,461.4 628.0,535.7 700.0,535.7"/>
<path d="M500.0,461.4 C572.0,461.4 628.0,560.5 700.0,560.5"/>
<path d="M500.0,461.4 C572.0,461.4 628.0,585.2 700.0,585.2"/>
<path d="M500.0,461.4 C572.0,461.4 628.0,610.0 700.0,610.0"/>
<path d="M500.0,486.2 C572.0,486.2 628.0,90.0 700.0,90.0"/>
<path d="M500.0,486.2 C572.0,486.2 628.0,114.8 700.0,114.8"/>
<path d="M500.0,486.2 C572.0,486.2 628.0,139.5 700.0,139.5"/>
<path d="M500.0,486.2 C572.0,486.2 628.0,164.3 700.0,164.3"/>
<path d="M500.0,486.2 C572.0,486.2 628.0,189.0 700.0,189.0"/>
<path d="M500.0,486.2 C572.0,486.2 628.0,213.8 700.0,213.8"/>
<path d="M500.0,486.2 C572.0,486.2 628.0,238.6 700.0,238.6"/>
<path d="M500.0,486.2 C572.0,486.2 628.0,263.3 700.0,263.3"/>
<path d="M500.0,486.2 C572.0,486.2 628.0,288.1 700.0,288.1"/>
<path d="M500.0,486.2 C572.0,486.2 628.0,312.9 700.0,312.9"/>
<path d="M500.0,486.2 C572.0,486.2 628.0,337.6 700.0,337.6"/>
<path d="M500.0,486.2 C572.0,486.2 628.0,362.4 700.0,362.4"/>
<path d="M500.0,486.2 C572.0,486.2 628.0,387.1 700.0,387.1"/>
<path d="M500.0,486.2 C572.0,486.2 628.0,411.9 700.0,411.9"/>
<path d="M500.0,486.2 C572.0,486.2 628.0,436.7 700.0,436.7"/>
<path d="M500.0,486.2 C572.0,486.2 628.0,461.4 700.0,461.4"/>
<path d="M500.0,486.2 C572.0,486.2 628.0,486.2 700.0,486.2"/>
<path d="M500.0,486.2 C572.0,486.2 628.0,511.0 700.0,511.0"/>
<path d="M500.0,486.2 C572.0,486.2 628.0,535.7 700.0,535.7"/>
<path d="M500.0,486.2 C572.0,486.2 628.0,560.5 700.0,560.5"/>
<path d="M500.0,486.2 C572.0,486.2 628.0,585.2 700.0,585.2"/>
<path d="M500.0,486.2 C572.0,486.2 628.0,610.0 700.0,610.0"/>
<path d="M500.0,511.0 C572.0,511.0 628.0,90.0 700.0,90.0"/>
<path d="M500.0,511.0 C572.0,511.0 628.0,114.8 700.0,114.8"/>
<path d="M500.0,511.0 C572.0,511.0 628.0,139.5 700.0,139.5"/>
<path d="M500.0,511.0 C572.0,511.0 628.0,164.3 700.0,164.3"/>
<path d="M500.0,511.0 C572.0,511.0 628.0,189.0 700.0,189.0"/>
<path d="M500.0,511.0 C572.0,511.0 628.0,213.8 700.0,213.8"/>
<path d="M500.0,511.0 C572.0,511.0 628.0,238.6 700.0,238.6"/>
<path d="M500.0,511.0 C572.0,511.0 628.0,263.3 700.0,263.3"/>
<path d="M500.0,511.0 C572.0,511.0 628.0,288.1 700.0,288.1"/>
<path d="M500.0,511.0 C572.0,511.0 628.0,312.9 700.0,312.9"/>
<path d="M500.0,511.0 C572.0,511.0 628.0,337.6 700.0,337.6"/>
<path d="M500.0,511.0 C572.0,511.0 628.0,362.4 700.0,362.4"/>
<path d="M500.0,511.0 C572.0,511.0 628.0,387.1 700.0,387.1"/>
<path d="M500.0,511.0 C572.0,511.0 628.0,411.9 700.0,411.9"/>
<path d="M500.0,511.0 C572.0,511.0 628.0,436.7 700.0,436.7"/>
<path d="M500.0,511.0 C572.0,511.0 628.0,461.4 700.0,461.4"/>
<path d="M500.0,511.0 C572.0,511.0 628.0,486.2 700.0,486.2"/>
<path d="M500.0,511.0 C572.0,511.0 628.0,511.0 700.0,511.0"/>
<path d="M500.0,511.0 C572.0,511.0 628.0,535.7 700.0,535.7"/>
<path d="M500.0,511.0 C572.0,511.0 628.0,560.5 700.0,560.5"/>
<path d="M500.0,511.0 C572.0,511.0 628.0,585.2 700.0,585.2"/>
<path d="M500.0,511.0 C572.0,511.0 628.0,610.0 700.0,610.0"/>
<path d="M500.0,535.7 C572.0,535.7 628.0,90.0 700.0,90.0"/>
<path d="M500.0,535.7 C572.0,535.7 628.0,114.8 700.0,114.8"/>
<path d="M500.0,535.7 C572.0,535.7 628.0,139.5 700.0,139.5"/>
<path d="M500.0,535.7 C572.0,535.7 628.0,164.3 700.0,164.3"/>
<path d="M500.0,535.7 C572.0,535.7 628.0,189.0 700.0,189.0"/>
<path d="M500.0,535.7 C572.0,535.7 628.0,213.8 700.0,213.8"/>
<path d="M500.0,535.7 C572.0,535.7 628.0,238.6 700.0,238.6"/>
<path d="M500.0,535.7 C572.0,535.7 628.0,263.3 700.0,263.3"/>
<path d="M500.0,535.7 C572.0,535.7 628.0,288.1 700.0,288.1"/>
<path d="M500.0,535.7 C572.0,535.7 628.0,312.9 700.0,312.9"/>
<path d="M500.0,535.7 C572.0,535.7 628.0,337.6 700.0,337.6"/>
<path d="M500.0,535.7 C572.0,535.7 628.0,362.4 700.0,362.4"/>
<path d="M500.0,535.7 C572.0,535.7 628.0,387.1 700.0,387.1"/>
<path d="M500.0,535.7 C572.0,535.7 628.0,411.9 700.0,411.9"/>
<path d="M500.0,535.7 C572.0,535.7 628.0,436.7 700.0,436.7"/>
<path d="M500.0,535.7 C572.0,535.7 628.0,461.4 700.0,461.4"/>
<path d="M500.0,535.7 C572.0,535.7 628.0,486.2 700.0,486.2"/>
<path d="M500.0,535.7 C572.0,535.7 628.0,511.0 700.0,511.0"/>
<path d="M500.0,535.7 C572.0,535.7 628.0,535.7 700.0,535.7"/>
<path d="M500.0,535.7 C572.0,535.7 628.0,560.5 700.0,560.5"/>
<path d="M500.0,535.7 C572.0,535.7 628.0,585.2 700.0,585.2"/>
<path d="M500.0,535.7 C572.0,535.7 628.0,610.0 700.0,610.0"/>
<path d="M500.0,560.5 C572.0,560.5 628.0,90.0 700.0,90.0"/>
<path d="M500.0,560.5 C572.0,560.5 628.0,114.8 700.0,114.8"/>
<path d="M500.0,560.5 C572.0,560.5 628.0,139.5 700.0,139.5"/>
<path d="M500.0,560.5 C572.0,560.5 628.0,164.3 700.0,164.3"/>
<path d="M500.0,560.5 C572.0,560.5 628.0,189.0 700.0,189.0"/>
<path d="M500.0,560.5 C572.0,560.5 628.0,213.8 700.0,213.8"/>
<path d="M500.0,560.5 C572.0,560.5 628.0,238.6 700.0,238.6"/>
<path d="M500.0,560.5 C572.0,560.5 628.0,263.3 700.0,263.3"/>
<path d="M500.0,560.5 C572.0,560.5 628.0,288.1 700.0,288.1"/>
<path d="M500.0,560.5 C572.0,560.5 628.0,312.9 700.0,312.9"/>
<path d="M500.0,560.5 C572.0,560.5 628.0,337.6 700.0,337.6"/>
<path d="M500.0,560.5 C572.0,560.5 628.0,362.4 700.0,362.4"/>
<path d="M500.0,560.5 C572.0,560.5 628.0,387.1 700.0,387.1"/>
<path d="M500.0,560.5 C572.0,560.5 628.0,411.9 700.0,411.9"/>
<path d="M500.0,560.5 C572.0,560.5 628.0,436.7 700.0,436.7"/>
<path d="M500.0,560.5 C572.0,560.5 628.0,461.4 700.0,461.4"/>
<path d="M500.0,560.5 C572.0,560.5 628.0,486.2 700.0,486.2"/>
<path d="M500.0,560.5 C572.0,560.5 628.0,511.0 700.0,511.0"/>
<path d="M500.0,560.5 C572.0,560.5 628.0,535.7 700.0,535.7"/>
<path d="M500.0,560.5 C572.0,560.5 628.0,560.5 700.0,560.5"/>
<path d="M500.0,560.5 C572.0,560.5 628.0,585.2 700.0,585.2"/>
<path d="M500.0,560.5 C572.0,560.5 628.0,610.0 700.0,610.0"/>
<path d="M500.0,585.2 C572.0,585.2 628.0,90.0 700.0,90.0"/>
<path d="M500.0,585.2 C572.0,585.2 628.0,114.8 700.0,114.8"/>
<path d="M500.0,585.2 C572.0,585.2 628.0,139.5 700.0,139.5"/>
<path d="M500.0,585.2 C572.0,585.2 628.0,164.3 700.0,164.3"/>
<path d="M500.0,585.2 C572.0,585.2 628.0,189.0 700.0,189.0"/>
<path d="M500.0,585.2 C572.0,585.2 628.0,213.8 700.0,213.8"/>
<path d="M500.0,585.2 C572.0,585.2 628.0,238.6 700.0,238.6"/>
<path d="M500.0,585.2 C572.0,585.2 628.0,263.3 700.0,263.3"/>
<path d="M500.0,585.2 C572.0,585.2 628.0,288.1 700.0,288.1"/>
<path d="M500.0,585.2 C572.0,585.2 628.0,312.9 700.0,312.9"/>
<path d="M500.0,585.2 C572.0,585.2 628.0,337.6 700.0,337.6"/>
<path d="M500.0,585.2 C572.0,585.2 628.0,362.4 700.0,362.4"/>
<path d="M500.0,585.2 C572.0,585.2 628.0,387.1 700.0,387.1"/>
<path d="M500.0,585.2 C572.0,585.2 628.0,411.9 700.0,411.9"/>
<path d="M500.0,585.2 C572.0,585.2 628.0,436.7 700.0,436.7"/>
<path d="M500.0,585.2 C572.0,585.2 628.0,461.4 700.0,461.4"/>
<path d="M500.0,585.2 C572.0,585.2 628.0,486.2 700.0,486.2"/>
<path d="M500.0,585.2 C572.0,585.2 628.0,511.0 700.0,511.0"/>
<path d="M500.0,585.2 C572.0,585.2 628.0,535.7 700.0,535.7"/>
<path d="M500.0,585.2 C572.0,585.2 628.0,560.5 700.0,560.5"/>
<path d="M500.0,585.2 C572.0,585.2 628.0,585.2 700.0,585.2"/>
<path d="M500.0,585.2 C572.0,585.2 628.0,610.0 700.0,610.0"/>
<path d="M500.0,610.0 C572.0,610.0 628.0,90.0 700.0,90.0"/>
<path d="M500.0,610.0 C572.0,610.0 628.0,114.8 700.0,114.8"/>
<path d="M500.0,610.0 C572.0,610.0 628.0,139.5 700.0,139.5"/>
<path d="M500.0,610.0 C572.0,610.0 628.0,164.3 700.0,164.3"/>
<path d="M500.0,610.0 C572.0,610.0 628.0,189.0 700.0,189.0"/>
<path d="M500.0,610.0 C572.0,610.0 628.0,213.8 700.0,213.8"/>
<path d="M500.0,610.0 C572.0,610.0 628.0,238.6 700.0,238.6"/>
<path d="M500.0,610.0 C572.0,610.0 628.0,263.3 700.0,263.3"/>
<path d="M500.0,610.0 C572.0,610.0 628.0,288.1 700.0,288.1"/>
<path d="M500.0,610.0 C572.0,610.0 628.0,312.9 700.0,312.9"/>
<path d="M500.0,610.0 C572.0,610.0 628.0,337.6 700.0,337.6"/>
<path d="M500.0,610.0 C572.0,610.0 628.0,362.4 700.0,362.4"/>
<path d="M500.0,610.0 C572.0,610.0 628.0,387.1 700.0,387.1"/>
<path d="M500.0,610.0 C572.0,610.0 628.0,411.9 700.0,411.9"/>
<path d="M500.0,610.0 C572.0,610.0 628.0,436.7 700.0,436.7"/>
<path d="M500.0,610.0 C572.0,610.0 628.0,461.4 700.0,461.4"/>
<path d="M500.0,610.0 C572.0,610.0 628.0,486.2 700.0,486.2"/>
<path d="M500.0,610.0 C572.0,610.0 628.0,511.0 700.0,511.0"/>
<path d="M500.0,610.0 C572.0,610.0 628.0,535.7 700.0,535.7"/>
<path d="M500.0,610.0 C572.0,610.0 628.0,560.5 700.0,560.5"/>
<path d="M500.0,610.0 C572.0,610.0 628.0,585.2 700.0,585.2"/>
<path d="M500.0,610.0 C572.0,610.0 628.0,610.0 700.0,610.0"/>
<path d="M700.0,90.0 C782.8,90.0 847.2,90.0 930.0,90.0"/>
<path d="M700.0,90.0 C782.8,90.0 847.2,130.0 930.0,130.0"/>
<path d="M700.0,90.0 C782.8,90.0 847.2,170.0 930.0,170.0"/>
<path d="M700.0,90.0 C782.8,90.0 847.2,210.0 930.0,210.0"/>
<path d="M700.0,90.0 C782.8,90.0 847.2,250.0 930.0,250.0"/>
<path d="M700.0,90.0 C782.8,90.0 847.2,290.0 930.0,290.0"/>
<path d="M700.0,90.0 C782.8,90.0 847.2,330.0 930.0,330.0"/>
<path d="M700.0,90.0 C782.8,90.0 847.2,370.0 930.0,370.0"/>
<path d="M700.0,90.0 C782.8,90.0 847.2,410.0 930.0,410.0"/>
<path d="M700.0,90.0 C782.8,90.0 847.2,450.0 930.0,450.0"/>
<path d="M700.0,90.0 C782.8,90.0 847.2,490.0 930.0,490.0"/>
<path d="M700.0,90.0 C782.8,90.0 847.2,530.0 930.0,530.0"/>
<path d="M700.0,90.0 C782.8,90.0 847.2,570.0 930.0,570.0"/>
<path d="M700.0,90.0 C782.8,90.0 847.2,610.0 930.0,610.0"/>
<path d="M700.0,114.8 C782.8,114.8 847.2,90.0 930.0,90.0"/>
<path d="M700.0,114.8 C782.8,114.8 847.2,130.0 930.0,130.0"/>
<path d="M700.0,114.8 C782.8,114.8 847.2,170.0 930.0,170.0"/>
<path d="M700.0,114.8 C782.8,114.8 847.2,210.0 930.0,210.0"/>
<path d="M700.0,114.8 C782.8,114.8 847.2,250.0 930.0,250.0"/>
<path d="M700.0,114.8 C782.8,114.8 847.2,290.0 930.0,290.0"/>
<path d="M700.0,114.8 C782.8,114.8 847.2,330.0 930.0,330.0"/>
<path d="M700.0,114.8 C782.8,114.8 847.2,370.0 930.0,370.0"/>
<path d="M700.0,114.8 C782.8,114.8 847.2,410.0 930.0,410.0"/>
<path d="M700.0,114.8 C782.8,114.8 847.2,450.0 930.0,450.0"/>
<path d="M700.0,114.8 C782.8,114.8 847.2,490.0 930.0,490.0"/>
<path d="M700.0,114.8 C782.8,114.8 847.2,530.0 930.0,530.0"/>
<path d="M700.0,114.8 C782.8,114.8 847.2,570.0 930.0,570.0"/>
<path d="M700.0,114.8 C782.8,114.8 847.2,610.0 930.0,610.0"/>
<path d="M700.0,139.5 C782.8,139.5 847.2,90.0 930.0,90.0"/>
<path d="M700.0,139.5 C782.8,139.5 847.2,130.0 930.0,130.0"/>
<path d="M700.0,139.5 C782.8,139.5 847.2,170.0 930.0,170.0"/>
<path d="M700.0,139.5 C782.8,139.5 847.2,210.0 930.0,210.0"/>
<path d="M700.0,139.5 C782.8,139.5 847.2,250.0 930.0,250.0"/>
<path d="M700.0,139.5 C782.8,139.5 847.2,290.0 930.0,290.0"/>
<path d="M700.0,139.5 C782.8,139.5 847.2,330.0 930.0,330.0"/>
<path d="M700.0,139.5 C782.8,139.5 847.2,370.0 930.0,370.0"/>
<path d="M700.0,139.5 C782.8,139.5 847.2,410.0 930.0,410.0"/>
<path d="M700.0,139.5 C782.8,139.5 847.2,450.0 930.0,450.0"/>
<path d="M700.0,139.5 C782.8,139.5 847.2,490.0 930.0,490.0"/>
<path d="M700.0,139.5 C782.8,139.5 847.2,530.0 930.0,530.0"/>
<path d="M700.0,139.5 C782.8,139.5 847.2,570.0 930.0,570.0"/>
<path d="M700.0,139.5 C782.8,139.5 847.2,610.0 930.0,610.0"/>
<path d="M700.0,164.3 C782.8,164.3 847.2,90.0 930.0,90.0"/>
<path d="M700.0,164.3 C782.8,164.3 847.2,130.0 930.0,130.0"/>
<path d="M700.0,164.3 C782.8,164.3 847.2,170.0 930.0,170.0"/>
<path d="M700.0,164.3 C782.8,164.3 847.2,210.0 930.0,210.0"/>
<path d="M700.0,164.3 C782.8,164.3 847.2,250.0 930.0,250.0"/>
<path d="M700.0,164.3 C782.8,164.3 847.2,290.0 930.0,290.0"/>
<path d="M700.0,164.3 C782.8,164.3 847.2,330.0 930.0,330.0"/>
<path d="M700.0,164.3 C782.8,164.3 847.2,370.0 930.0,370.0"/>
<path d="M700.0,164.3 C782.8,164.3 847.2,410.0 930.0,410.0"/>
<path d="M700.0,164.3 C782.8,164.3 847.2,450.0 930.0,450.0"/>
<path d="M700.0,164.3 C782.8,164.3 847.2,490.0 930.0,490.0"/>
<path d="M700.0,164.3 C782.8,164.3 847.2,530.0 930.0,530.0"/>
<path d="M700.0,164.3 C782.8,164.3 847.2,570.0 930.0,570.0"/>
<path d="M700.0,164.3 C782.8,164.3 847.2,610.0 930.0,610.0"/>
<path d="M700.0,189.0 C782.8,189.0 847.2,90.0 930.0,90.0"/>
<path d="M700.0,189.0 C782.8,189.0 847.2,130.0 930.0,130.0"/>
<path d="M700.0,189.0 C782.8,189.0 847.2,170.0 930.0,170.0"/>
<path d="M700.0,189.0 C782.8,189.0 847.2,210.0 930.0,210.0"/>
<path d="M700.0,189.0 C782.8,189.0 847.2,250.0 930.0,250.0"/>
<path d="M700.0,189.0 C782.8,189.0 847.2,290.0 930.0,290.0"/>
<path d="M700.0,189.0 C782.8,189.0 847.2,330.0 930.0,330.0"/>
<path d="M700.0,189.0 C782.8,189.0 847.2,370.0 930.0,370.0"/>
<path d="M700.0,189.0 C782.8,189.0 847.2,410.0 930.0,410.0"/>
<path d="M700.0,189.0 C782.8,189.0 847.2,450.0 930.0,450.0"/>
<path d="M700.0,189.0 C782.8,189.0 847.2,490.0 930.0,490.0"/>
<path d="M700.0,189.0 C782.8,189.0 847.2,530.0 930.0,530.0"/>
<path d="M700.0,189.0 C782.8,189.0 847.2,570.0 930.0,570.0"/>
<path d="M700.0,189.0 C782.8,189.0 847.2,610.0 930.0,610.0"/>
<path d="M700.0,213.8 C782.8,213.8 847.2,90.0 930.0,90.0"/>
<path d="M700.0,213.8 C782.8,213.8 847.2,130.0 930.0,130.0"/>
<path d="M700.0,213.8 C782.8,213.8 847.2,170.0 930.0,170.0"/>
<path d="M700.0,213.8 C782.8,213.8 847.2,210.0 930.0,210.0"/>
<path d="M700.0,213.8 C782.8,213.8 847.2,250.0 930.0,250.0"/>
<path d="M700.0,213.8 C782.8,213.8 847.2,290.0 930.0,290.0"/>
<path d="M700.0,213.8 C782.8,213.8 847.2,330.0 930.0,330.0"/>
<path d="M700.0,213.8 C782.8,213.8 847.2,370.0 930.0,370.0"/>
<path d="M700.0,213.8 C782.8,213.8 847.2,410.0 930.0,410.0"/>
<path d="M700.0,213.8 C782.8,213.8 847.2,450.0 930.0,450.0"/>
<path d="M700.0,213.8 C782.8,213.8 847.2,490.0 930.0,490.0"/>
<path d="M700.0,213.8 C782.8,213.8 847.2,530.0 930.0,530.0"/>
<path d="M700.0,213.8 C782.8,213.8 847.2,570.0 930.0,570.0"/>
<path d="M700.0,213.8 C782.8,213.8 847.2,610.0 930.0,610.0"/>
<path d="M700.0,238.6 C782.8,238.6 847.2,90.0 930.0,90.0"/>
<path d="M700.0,238.6 C782.8,238.6 847.2,130.0 930.0,130.0"/>
<path d="M700.0,238.6 C782.8,238.6 847.2,170.0 930.0,170.0"/>
<path d="M700.0,238.6 C782.8,238.6 847.2,210.0 930.0,210.0"/>
<path d="M700.0,238.6 C782.8,238.6 847.2,250.0 930.0,250.0"/>
<path d="M700.0,238.6 C782.8,238.6 847.2,290.0 930.0,290.0"/>
<path d="M700.0,238.6 C782.8,238.6 847.2,330.0 930.0,330.0"/>
<path d="M700.0,238.6 C782.8,238.6 847.2,370.0 930.0,370.0"/>
<path d="M700.0,238.6 C782.8,238.6 847.2,410.0 930.0,410.0"/>
<path d="M700.0,238.6 C782.8,238.6 847.2,450.0 930.0,450.0"/>
<path d="M700.0,238.6 C782.8,238.6 847.2,490.0 930.0,490.0"/>
<path d="M700.0,238.6 C782.8,238.6 847.2,530.0 930.0,530.0"/>
<path d="M700.0,238.6 C782.8,238.6 847.2,570.0 930.0,570.0"/>
<path d="M700.0,238.6 C782.8,238.6 847.2,610.0 930.0,610.0"/>
<path d="M700.0,263.3 C782.8,263.3 847.2,90.0 930.0,90.0"/>
<path d="M700.0,263.3 C782.8,263.3 847.2,130.0 930.0,130.0"/>
<path d="M700.0,263.3 C782.8,263.3 847.2,170.0 930.0,170.0"/>
<path d="M700.0,263.3 C782.8,263.3 847.2,210.0 930.0,210.0"/>
<path d="M700.0,263.3 C782.8,263.3 847.2,250.0 930.0,250.0"/>
<path d="M700.0,263.3 C782.8,263.3 847.2,290.0 930.0,290.0"/>
<path d="M700.0,263.3 C782.8,263.3 847.2,330.0 930.0,330.0"/>
<path d="M700.0,263.3 C782.8,263.3 847.2,370.0 930.0,370.0"/>
<path d="M700.0,263.3 C782.8,263.3 847.2,410.0 930.0,410.0"/>
<path d="M700.0,263.3 C782.8,263.3 847.2,450.0 930.0,450.0"/>
<path d="M700.0,263.3 C782.8,263.3 847.2,490.0 930.0,490.0"/>
<path d="M700.0,263.3 C782.8,263.3 847.2,530.0 930.0,530.0"/>
<path d="M700.0,263.3 C782.8,263.3 847.2,570.0 930.0,570.0"/>
<path d="M700.0,263.3 C782.8,263.3 847.2,610.0 930.0,610.0"/>
<path d="M700.0,288.1 C782.8,288.1 847.2,90.0 930.0,90.0"/>
<path d="M700.0,288.1 C782.8,288.1 847.2,130.0 930.0,130.0"/>
<path d="M700.0,288.1 C782.8,288.1 847.2,170.0 930.0,170.0"/>
<path d="M700.0,288.1 C782.8,288.1 847.2,210.0 930.0,210.0"/>
<path d="M700.0,288.1 C782.8,288.1 847.2,250.0 930.0,250.0"/>
<path d="M700.0,288.1 C782.8,288.1 847.2,290.0 930.0,290.0"/>
<path d="M700.0,288.1 C782.8,288.1 847.2,330.0 930.0,330.0"/>
<path d="M700.0,288.1 C782.8,288.1 847.2,370.0 930.0,370.0"/>
<path d="M700.0,288.1 C782.8,288.1 847.2,410.0 930.0,410.0"/>
<path d="M700.0,288.1 C782.8,288.1 847.2,450.0 930.0,450.0"/>
<path d="M700.0,288.1 C782.8,288.1 847.2,490.0 930.0,490.0"/>
<path d="M700.0,288.1 C782.8,288.1 847.2,530.0 930.0,530.0"/>
<path d="M700.0,288.1 C782.8,288.1 847.2,570.0 930.0,570.0"/>
<path d="M700.0,288.1 C782.8,288.1 847.2,610.0 930.0,610.0"/>
<path d="M700.0,312.9 C782.8,312.9 847.2,90.0 930.0,90.0"/>
<path d="M700.0,312.9 C782.8,312.9 847.2,130.0 930.0,130.0"/>
<path d="M700.0,312.9 C782.8,312.9 847.2,170.0 930.0,170.0"/>
<path d="M700.0,312.9 C782.8,312.9 847.2,210.0 930.0,210.0"/>
<path d="M700.0,312.9 C782.8,312.9 847.2,250.0 930.0,250.0"/>
<path d="M700.0,312.9 C782.8,312.9 847.2,290.0 930.0,290.0"/>
<path d="M700.0,312.9 C782.8,312.9 847.2,330.0 930.0,330.0"/>
<path d="M700.0,312.9 C782.8,312.9 847.2,370.0 930.0,370.0"/>
<path d="M700.0,312.9 C782.8,312.9 847.2,410.0 930.0,410.0"/>
<path d="M700.0,312.9 C782.8,312.9 847.2,450.0 930.0,450.0"/>
<path d="M700.0,312.9 C782.8,312.9 847.2,490.0 930.0,490.0"/>
<path d="M700.0,312.9 C782.8,312.9 847.2,530.0 930.0,530.0"/>
<path d="M700.0,312.9 C782.8,312.9 847.2,570.0 930.0,570.0"/>
<path d="M700.0,312.9 C782.8,312.9 847.2,610.0 930.0,610.0"/>
<path d="M700.0,337.6 C782.8,337.6 847.2,90.0 930.0,90.0"/>
<path d="M700.0,337.6 C782.8,337.6 847.2,130.0 930.0,130.0"/>
<path d="M700.0,337.6 C782.8,337.6 847.2,170.0 930.0,170.0"/>
<path d="M700.0,337.6 C782.8,337.6 847.2,210.0 930.0,210.0"/>
<path d="M700.0,337.6 C782.8,337.6 847.2,250.0 930.0,250.0"/>
<path d="M700.0,337.6 C782.8,337.6 847.2,290.0 930.0,290.0"/>
<path d="M700.0,337.6 C782.8,337.6 847.2,330.0 930.0,330.0"/>
<path d="M700.0,337.6 C782.8,337.6 847.2,370.0 930.0,370.0"/>
<path d="M700.0,337.6 C782.8,337.6 847.2,410.0 930.0,410.0"/>
<path d="M700.0,337.6 C782.8,337.6 847.2,450.0 930.0,450.0"/>
<path d="M700.0,337.6 C782.8,337.6 847.2,490.0 930.0,490.0"/>
<path d="M700.0,337.6 C782.8,337.6 847.2,530.0 930.0,530.0"/>
<path d="M700.0,337.6 C782.8,337.6 847.2,570.0 930.0,570.0"/>
<path d="M700.0,337.6 C782.8,337.6 847.2,610.0 930.0,610.0"/>
<path d="M700.0,362.4 C782.8,362.4 847.2,90.0 930.0,90.0"/>
<path d="M700.0,362.4 C782.8,362.4 847.2,130.0 930.0,130.0"/>
<path d="M700.0,362.4 C782.8,362.4 847.2,170.0 930.0,170.0"/>
<path d="M700.0,362.4 C782.8,362.4 847.2,210.0 930.0,210.0"/>
<path d="M700.0,362.4 C782.8,362.4 847.2,250.0 930.0,250.0"/>
<path d="M700.0,362.4 C782.8,362.4 847.2,290.0 930.0,290.0"/>
<path d="M700.0,362.4 C782.8,362.4 847.2,330.0 930.0,330.0"/>
<path d="M700.0,362.4 C782.8,362.4 847.2,370.0 930.0,370.0"/>
<path d="M700.0,362.4 C782.8,362.4 847.2,410.0 930.0,410.0"/>
<path d="M700.0,362.4 C782.8,362.4 847.2,450.0 930.0,450.0"/>
<path d="M700.0,362.4 C782.8,362.4 847.2,490.0 930.0,490.0"/>
<path d="M700.0,362.4 C782.8,362.4 847.2,530.0 930.0,530.0"/>
<path d="M700.0,362.4 C782.8,362.4 847.2,570.0 930.0,570.0"/>
<path d="M700.0,362.4 C782.8,362.4 847.2,610.0 930.0,610.0"/>
<path d="M700.0,387.1 C782.8,387.1 847.2,90.0 930.0,90.0"/>
<path d="M700.0,387.1 C782.8,387.1 847.2,130.0 930.0,130.0"/>
<path d="M700.0,387.1 C782.8,387.1 847.2,170.0 930.0,170.0"/>
<path d="M700.0,387.1 C782.8,387.1 847.2,210.0 930.0,210.0"/>
<path d="M700.0,387.1 C782.8,387.1 847.2,250.0 930.0,250.0"/>
<path d="M700.0,387.1 C782.8,387.1 847.2,290.0 930.0,290.0"/>
<path d="M700.0,387.1 C782.8,387.1 847.2,330.0 930.0,330.0"/>
<path d="M700.0,387.1 C782.8,387.1 847.2,370.0 930.0,370.0"/>
<path d="M700.0,387.1 C782.8,387.1 847.2,410.0 930.0,410.0"/>
<path d="M700.0,387.1 C782.8,387.1 847.2,450.0 930.0,450.0"/>
<path d="M700.0,387.1 C782.8,387.1 847.2,490.0 930.0,490.0"/>
<path d="M700.0,387.1 C782.8,387.1 847.2,530.0 930.0,530.0"/>
<path d="M700.0,387.1 C782.8,387.1 847.2,570.0 930.0,570.0"/>
<path d="M700.0,387.1 C782.8,387.1 847.2,610.0 930.0,610.0"/>
<path d="M700.0,411.9 C782.8,411.9 847.2,90.0 930.0,90.0"/>
<path d="M700.0,411.9 C782.8,411.9 847.2,130.0 930.0,130.0"/>
<path d="M700.0,411.9 C782.8,411.9 847.2,170.0 930.0,170.0"/>
<path d="M700.0,411.9 C782.8,411.9 847.2,210.0 930.0,210.0"/>
<path d="M700.0,411.9 C782.8,411.9 847.2,250.0 930.0,250.0"/>
<path d="M700.0,411.9 C782.8,411.9 847.2,290.0 930.0,290.0"/>
<path d="M700.0,411.9 C782.8,411.9 847.2,330.0 930.0,330.0"/>
<path d="M700.0,411.9 C782.8,411.9 847.2,370.0 930.0,370.0"/>
<path d="M700.0,411.9 C782.8,411.9 847.2,410.0 930.0,410.0"/>
<path d="M700.0,411.9 C782.8,411.9 847.2,450.0 930.0,450.0"/>
<path d="M700.0,411.9 C782.8,411.9 847.2,490.0 930.0,490.0"/>
<path d="M700.0,411.9 C782.8,411.9 847.2,530.0 930.0,530.0"/>
<path d="M700.0,411.9 C782.8,411.9 847.2,570.0 930.0,570.0"/>
<path d="M700.0,411.9 C782.8,411.9 847.2,610.0 930.0,610.0"/>
<path d="M700.0,436.7 C782.8,436.7 847.2,90.0 930.0,90.0"/>
<path d="M700.0,436.7 C782.8,436.7 847.2,130.0 930.0,130.0"/>
<path d="M700.0,436.7 C782.8,436.7 847.2,170.0 930.0,170.0"/>
<path d="M700.0,436.7 C782.8,436.7 847.2,210.0 930.0,210.0"/>
<path d="M700.0,436.7 C782.8,436.7 847.2,250.0 930.0,250.0"/>
<path d="M700.0,436.7 C782.8,436.7 847.2,290.0 930.0,290.0"/>
<path d="M700.0,436.7 C782.8,436.7 847.2,330.0 930.0,330.0"/>
<path d="M700.0,436.7 C782.8,436.7 847.2,370.0 930.0,370.0"/>
<path d="M700.0,436.7 C782.8,436.7 847.2,410.0 930.0,410.0"/>
<path d="M700.0,436.7 C782.8,436.7 847.2,450.0 930.0,450.0"/>
<path d="M700.0,436.7 C782.8,436.7 847.2,490.0 930.0,490.0"/>
<path d="M700.0,436.7 C782.8,436.7 847.2,530.0 930.0,530.0"/>
<path d="M700.0,436.7 C782.8,436.7 847.2,570.0 930.0,570.0"/>
<path d="M700.0,436.7 C782.8,436.7 847.2,610.0 930.0,610.0"/>
<path d="M700.0,461.4 C782.8,461.4 847.2,90.0 930.0,90.0"/>
<path d="M700.0,461.4 C782.8,461.4 847.2,130.0 930.0,130.0"/>
<path d="M700.0,461.4 C782.8,461.4 847.2,170.0 930.0,170.0"/>
<path d="M700.0,461.4 C782.8,461.4 847.2,210.0 930.0,210.0"/>
<path d="M700.0,461.4 C782.8,461.4 847.2,250.0 930.0,250.0"/>
<path d="M700.0,461.4 C782.8,461.4 847.2,290.0 930.0,290.0"/>
<path d="M700.0,461.4 C782.8,461.4 847.2,330.0 930.0,330.0"/>
<path d="M700.0,461.4 C782.8,461.4 847.2,370.0 930.0,370.0"/>
<path d="M700.0,461.4 C782.8,461.4 847.2,410.0 930.0,410.0"/>
<path d="M700.0,461.4 C782.8,461.4 847.2,450.0 930.0,450.0"/>
<path d="M700.0,461.4 C782.8,461.4 847.2,490.0 930.0,490.0"/>
<path d="M700.0,461.4 C782.8,461.4 847.2,530.0 930.0,530.0"/>
<path d="M700.0,461.4 C782.8,461.4 847.2,570.0 930.0,570.0"/>
<path d="M700.0,461.4 C782.8,461.4 847.2,610.0 930.0,610.0"/>
<path d="M700.0,486.2 C782.8,486.2 847.2,90.0 930.0,90.0"/>
<path d="M700.0,486.2 C782.8,486.2 847.2,130.0 930.0,130.0"/>
<path d="M700.0,486.2 C782.8,486.2 847.2,170.0 930.0,170.0"/>
<path d="M700.0,486.2 C782.8,486.2 847.2,210.0 930.0,210.0"/>
<path d="M700.0,486.2 C782.8,486.2 847.2,250.0 930.0,250.0"/>
<path d="M700.0,486.2 C782.8,486.2 847.2,290.0 930.0,290.0"/>
<path d="M700.0,486.2 C782.8,486.2 847.2,330.0 930.0,330.0"/>
<path d="M700.0,486.2 C782.8,486.2 847.2,370.0 930.0,370.0"/>
<path d="M700.0,486.2 C782.8,486.2 847.2,410.0 930.0,410.0"/>
<path d="M700.0,486.2 C782.8,486.2 847.2,450.0 930.0,450.0"/>
<path d="M700.0,486.2 C782.8,486.2 847.2,490.0 930.0,490.0"/>
<path d="M700.0,486.2 C782.8,486.2 847.2,530.0 930.0,530.0"/>
<path d="M700.0,486.2 C782.8,486.2 847.2,570.0 930.0,570.0"/>
<path d="M700.0,486.2 C782.8,486.2 847.2,610.0 930.0,610.0"/>
<path d="M700.0,511.0 C782.8,511.0 847.2,90.0 930.0,90.0"/>
<path d="M700.0,511.0 C782.8,511.0 847.2,130.0 930.0,130.0"/>
<path d="M700.0,511.0 C782.8,511.0 847.2,170.0 930.0,170.0"/>
<path d="M700.0,511.0 C782.8,511.0 847.2,210.0 930.0,210.0"/>
<path d="M700.0,511.0 C782.8,511.0 847.2,250.0 930.0,250.0"/>
<path d="M700.0,511.0 C782.8,511.0 847.2,290.0 930.0,290.0"/>
<path d="M700.0,511.0 C782.8,511.0 847.2,330.0 930.0,330.0"/>
<path d="M700.0,511.0 C782.8,511.0 847.2,370.0 930.0,370.0"/>
<path d="M700.0,511.0 C782.8,511.0 847.2,410.0 930.0,410.0"/>
<path d="M700.0,511.0 C782.8,511.0 847.2,450.0 930.0,450.0"/>
<path d="M700.0,511.0 C782.8,511.0 847.2,490.0 930.0,490.0"/>
<path d="M700.0,511.0 C782.8,511.0 847.2,530.0 930.0,530.0"/>
<path d="M700.0,511.0 C782.8,511.0 847.2,570.0 930.0,570.0"/>
<path d="M700.0,511.0 C782.8,511.0 847.2,610.0 930.0,610.0"/>
<path d="M700.0,535.7 C782.8,535.7 847.2,90.0 930.0,90.0"/>
<path d="M700.0,535.7 C782.8,535.7 847.2,130.0 930.0,130.0"/>
<path d="M700.0,535.7 C782.8,535.7 847.2,170.0 930.0,170.0"/>
<path d="M700.0,535.7 C782.8,535.7 847.2,210.0 930.0,210.0"/>
<path d="M700.0,535.7 C782.8,535.7 847.2,250.0 930.0,250.0"/>
<path d="M700.0,535.7 C782.8,535.7 847.2,290.0 930.0,290.0"/>
<path d="M700.0,535.7 C782.8,535.7 847.2,330.0 930.0,330.0"/>
<path d="M700.0,535.7 C782.8,535.7 847.2,370.0 930.0,370.0"/>
<path d="M700.0,535.7 C782.8,535.7 847.2,410.0 930.0,410.0"/>
<path d="M700.0,535.7 C782.8,535.7 847.2,450.0 930.0,450.0"/>
<path d="M700.0,535.7 C782.8,535.7 847.2,490.0 930.0,490.0"/>
<path d="M700.0,535.7 C782.8,535.7 847.2,530.0 930.0,530.0"/>
<path d="M700.0,535.7 C782.8,535.7 847.2,570.0 930.0,570.0"/>
<path d="M700.0,535.7 C782.8,535.7 847.2,610.0 930.0,610.0"/>
<path d="M700.0,560.5 C782.8,560.5 847.2,90.0 930.0,90.0"/>
<path d="M700.0,560.5 C782.8,560.5 847.2,130.0 930.0,130.0"/>
<path d="M700.0,560.5 C782.8,560.5 847.2,170.0 930.0,170.0"/>
<path d="M700.0,560.5 C782.8,560.5 847.2,210.0 930.0,210.0"/>
<path d="M700.0,560.5 C782.8,560.5 847.2,250.0 930.0,250.0"/>
<path d="M700.0,560.5 C782.8,560.5 847.2,290.0 930.0,290.0"/>
<path d="M700.0,560.5 C782.8,560.5 847.2,330.0 930.0,330.0"/>
<path d="M700.0,560.5 C782.8,560.5 847.2,370.0 930.0,370.0"/>
<path d="M700.0,560.5 C782.8,560.5 847.2,410.0 930.0,410.0"/>
<path d="M700.0,560.5 C782.8,560.5 847.2,450.0 930.0,450.0"/>
<path d="M700.0,560.5 C782.8,560.5 847.2,490.0 930.0,490.0"/>
<path d="M700.0,560.5 C782.8,560.5 847.2,530.0 930.0,530.0"/>
<path d="M700.0,560.5 C782.8,560.5 847.2,570.0 930.0,570.0"/>
<path d="M700.0,560.5 C782.8,560.5 847.2,610.0 930.0,610.0"/>
<path d="M700.0,585.2 C782.8,585.2 847.2,90.0 930.0,90.0"/>
<path d="M700.0,585.2 C782.8,585.2 847.2,130.0 930.0,130.0"/>
<path d="M700.0,585.2 C782.8,585.2 847.2,170.0 930.0,170.0"/>
<path d="M700.0,585.2 C782.8,585.2 847.2,210.0 930.0,210.0"/>
<path d="M700.0,585.2 C782.8,585.2 847.2,250.0 930.0,250.0"/>
<path d="M700.0,585.2 C782.8,585.2 847.2,290.0 930.0,290.0"/>
<path d="M700.0,585.2 C782.8,585.2 847.2,330.0 930.0,330.0"/>
<path d="M700.0,585.2 C782.8,585.2 847.2,370.0 930.0,370.0"/>
<path d="M700.0,585.2 C782.8,585.2 847.2,410.0 930.0,410.0"/>
<path d="M700.0,585.2 C782.8,585.2 847.2,450.0 930.0,450.0"/>
<path d="M700.0,585.2 C782.8,585.2 847.2,490.0 930.0,490.0"/>
<path d="M700.0,585.2 C782.8,585.2 847.2,530.0 930.0,530.0"/>
<path d="M700.0,585.2 C782.8,585.2 847.2,570.0 930.0,570.0"/>
<path d="M700.0,585.2 C782.8,585.2 847.2,610.0 930.0,610.0"/>
<path d="M700.0,610.0 C782.8,610.0 847.2,90.0 930.0,90.0"/>
<path d="M700.0,610.0 C782.8,610.0 847.2,130.0 930.0,130.0"/>
<path d="M700.0,610.0 C782.8,610.0 847.2,170.0 930.0,170.0"/>
<path d="M700.0,610.0 C782.8,610.0 847.2,210.0 930.0,210.0"/>
<path d="M700.0,610.0 C782.8,610.0 847.2,250.0 930.0,250.0"/>
<path d="M700.0,610.0 C782.8,610.0 847.2,290.0 930.0,290.0"/>
<path d="M700.0,610.0 C782.8,610.0 847.2,330.0 930.0,330.0"/>
<path d="M700.0,610.0 C782.8,610.0 847.2,370.0 930.0,370.0"/>
<path d="M700.0,610.0 C782.8,610.0 847.2,410.0 930.0,410.0"/>
<path d="M700.0,610.0 C782.8,610.0 847.2,450.0 930.0,450.0"/>
<path d="M700.0,610.0 C782.8,610.0 847.2,490.0 930.0,490.0"/>
<path d="M700.0,610.0 C782.8,610.0 847.2,530.0 930.0,530.0"/>
<path d="M700.0,610.0 C782.8,610.0 847.2,570.0 930.0,570.0"/>
<path d="M700.0,610.0 C782.8,610.0 847.2,610.0 930.0,610.0"/>
<path d="M930.0,90.0 C1002.0,90.0 1058.0,350.0 1130.0,350.0"/>
<path d="M930.0,130.0 C1002.0,130.0 1058.0,350.0 1130.0,350.0"/>
<path d="M930.0,170.0 C1002.0,170.0 1058.0,350.0 1130.0,350.0"/>
<path d="M930.0,210.0 C1002.0,210.0 1058.0,350.0 1130.0,350.0"/>
<path d="M930.0,250.0 C1002.0,250.0 1058.0,350.0 1130.0,350.0"/>
<path d="M930.0,290.0 C1002.0,290.0 1058.0,350.0 1130.0,350.0"/>
<path d="M930.0,330.0 C1002.0,330.0 1058.0,350.0 1130.0,350.0"/>
<path d="M930.0,370.0 C1002.0,370.0 1058.0,350.0 1130.0,350.0"/>
<path d="M930.0,410.0 C1002.0,410.0 1058.0,350.0 1130.0,350.0"/>
<path d="M930.0,450.0 C1002.0,450.0 1058.0,350.0 1130.0,350.0"/>
<path d="M930.0,490.0 C1002.0,490.0 1058.0,350.0 1130.0,350.0"/>
<path d="M930.0,530.0 C1002.0,530.0 1058.0,350.0 1130.0,350.0"/>
<path d="M930.0,570.0 C1002.0,570.0 1058.0,350.0 1130.0,350.0"/>
<path d="M930.0,610.0 C1002.0,610.0 1058.0,350.0 1130.0,350.0"/>
</g>
<circle cx="70.0" cy="90.0" r="17" fill="#dce8f4" opacity="0.92"/>
<circle cx="70.0" cy="90.0" r="13" fill="#4db6df" filter="url(#softGlow)"/>
<circle cx="67.2" cy="86.8" r="2.2" fill="#f7fcff" opacity="0.55"/>
<circle cx="70.0" cy="164.3" r="17" fill="#dce8f4" opacity="0.92"/>
<circle cx="70.0" cy="164.3" r="13" fill="#4db6df" filter="url(#softGlow)"/>
<circle cx="67.2" cy="161.1" r="2.2" fill="#f7fcff" opacity="0.55"/>
<circle cx="70.0" cy="238.6" r="17" fill="#dce8f4" opacity="0.92"/>
<circle cx="70.0" cy="238.6" r="13" fill="#4db6df" filter="url(#softGlow)"/>
<circle cx="67.2" cy="235.4" r="2.2" fill="#f7fcff" opacity="0.55"/>
<circle cx="70.0" cy="312.9" r="17" fill="#dce8f4" opacity="0.92"/>
<circle cx="70.0" cy="312.9" r="13" fill="#4db6df" filter="url(#softGlow)"/>
<circle cx="67.2" cy="309.7" r="2.2" fill="#f7fcff" opacity="0.55"/>
<circle cx="70.0" cy="387.1" r="17" fill="#dce8f4" opacity="0.92"/>
<circle cx="70.0" cy="387.1" r="13" fill="#4db6df" filter="url(#softGlow)"/>
<circle cx="67.2" cy="383.9" r="2.2" fill="#f7fcff" opacity="0.55"/>
<circle cx="70.0" cy="461.4" r="17" fill="#dce8f4" opacity="0.92"/>
<circle cx="70.0" cy="461.4" r="13" fill="#4db6df" filter="url(#softGlow)"/>
<circle cx="67.2" cy="458.2" r="2.2" fill="#f7fcff" opacity="0.55"/>
<circle cx="70.0" cy="535.7" r="17" fill="#dce8f4" opacity="0.92"/>
<circle cx="70.0" cy="535.7" r="13" fill="#4db6df" filter="url(#softGlow)"/>
<circle cx="67.2" cy="532.5" r="2.2" fill="#f7fcff" opacity="0.55"/>
<circle cx="70.0" cy="610.0" r="17" fill="#dce8f4" opacity="0.92"/>
<circle cx="70.0" cy="610.0" r="13" fill="#4db6df" filter="url(#softGlow)"/>
<circle cx="67.2" cy="606.8" r="2.2" fill="#f7fcff" opacity="0.55"/>
<circle cx="300.0" cy="90.0" r="12" fill="#dce8f4" opacity="0.92"/>
<circle cx="300.0" cy="90.0" r="9" fill="#4db6df" filter="url(#softGlow)"/>
<circle cx="297.2" cy="86.8" r="2.2" fill="#f7fcff" opacity="0.55"/>
<circle cx="300.0" cy="130.0" r="12" fill="#dce8f4" opacity="0.92"/>
<circle cx="300.0" cy="130.0" r="9" fill="#4db6df" filter="url(#softGlow)"/>
<circle cx="297.2" cy="126.8" r="2.2" fill="#f7fcff" opacity="0.55"/>
<circle cx="300.0" cy="170.0" r="12" fill="#dce8f4" opacity="0.92"/>
<circle cx="300.0" cy="170.0" r="9" fill="#4db6df" filter="url(#softGlow)"/>
<circle cx="297.2" cy="166.8" r="2.2" fill="#f7fcff" opacity="0.55"/>
<circle cx="300.0" cy="210.0" r="12" fill="#dce8f4" opacity="0.92"/>
<circle cx="300.0" cy="210.0" r="9" fill="#4db6df" filter="url(#softGlow)"/>
<circle cx="297.2" cy="206.8" r="2.2" fill="#f7fcff" opacity="0.55"/>
<circle cx="300.0" cy="250.0" r="12" fill="#dce8f4" opacity="0.92"/>
<circle cx="300.0" cy="250.0" r="9" fill="#4db6df" filter="url(#softGlow)"/>
<circle cx="297.2" cy="246.8" r="2.2" fill="#f7fcff" opacity="0.55"/>
<circle cx="300.0" cy="290.0" r="12" fill="#dce8f4" opacity="0.92"/>
<circle cx="300.0" cy="290.0" r="9" fill="#4db6df" filter="url(#softGlow)"/>
<circle cx="297.2" cy="286.8" r="2.2" fill="#f7fcff" opacity="0.55"/>
<circle cx="300.0" cy="330.0" r="12" fill="#dce8f4" opacity="0.92"/>
<circle cx="300.0" cy="330.0" r="9" fill="#4db6df" filter="url(#softGlow)"/>
<circle cx="297.2" cy="326.8" r="2.2" fill="#f7fcff" opacity="0.55"/>
<circle cx="300.0" cy="370.0" r="12" fill="#dce8f4" opacity="0.92"/>
<circle cx="300.0" cy="370.0" r="9" fill="#4db6df" filter="url(#softGlow)"/>
<circle cx="297.2" cy="366.8" r="2.2" fill="#f7fcff" opacity="0.55"/>
<circle cx="300.0" cy="410.0" r="12" fill="#dce8f4" opacity="0.92"/>
<circle cx="300.0" cy="410.0" r="9" fill="#4db6df" filter="url(#softGlow)"/>
<circle cx="297.2" cy="406.8" r="2.2" fill="#f7fcff" opacity="0.55"/>
<circle cx="300.0" cy="450.0" r="12" fill="#dce8f4" opacity="0.92"/>
<circle cx="300.0" cy="450.0" r="9" fill="#4db6df" filter="url(#softGlow)"/>
<circle cx="297.2" cy="446.8" r="2.2" fill="#f7fcff" opacity="0.55"/>
<circle cx="300.0" cy="490.0" r="12" fill="#dce8f4" opacity="0.92"/>
<circle cx="300.0" cy="490.0" r="9" fill="#4db6df" filter="url(#softGlow)"/>
<circle cx="297.2" cy="486.8" r="2.2" fill="#f7fcff" opacity="0.55"/>
<circle cx="300.0" cy="530.0" r="12" fill="#dce8f4" opacity="0.92"/>
<circle cx="300.0" cy="530.0" r="9" fill="#4db6df" filter="url(#softGlow)"/>
<circle cx="297.2" cy="526.8" r="2.2" fill="#f7fcff" opacity="0.55"/>
<circle cx="300.0" cy="570.0" r="12" fill="#dce8f4" opacity="0.92"/>
<circle cx="300.0" cy="570.0" r="9" fill="#4db6df" filter="url(#softGlow)"/>
<circle cx="297.2" cy="566.8" r="2.2" fill="#f7fcff" opacity="0.55"/>
<circle cx="300.0" cy="610.0" r="12" fill="#dce8f4" opacity="0.92"/>
<circle cx="300.0" cy="610.0" r="9" fill="#4db6df" filter="url(#softGlow)"/>
<circle cx="297.2" cy="606.8" r="2.2" fill="#f7fcff" opacity="0.55"/>
<circle cx="500.0" cy="90.0" r="13" fill="#dce8f4" opacity="0.92"/>
<circle cx="500.0" cy="90.0" r="10" fill="#4db6df" filter="url(#softGlow)"/>
<circle cx="497.2" cy="86.8" r="2.2" fill="#f7fcff" opacity="0.55"/>
<circle cx="500.0" cy="114.8" r="13" fill="#dce8f4" opacity="0.92"/>
<circle cx="500.0" cy="114.8" r="10" fill="#4db6df" filter="url(#softGlow)"/>
<circle cx="497.2" cy="111.6" r="2.2" fill="#f7fcff" opacity="0.55"/>
<circle cx="500.0" cy="139.5" r="13" fill="#dce8f4" opacity="0.92"/>
<circle cx="500.0" cy="139.5" r="10" fill="#4db6df" filter="url(#softGlow)"/>
<circle cx="497.2" cy="136.3" r="2.2" fill="#f7fcff" opacity="0.55"/>
<circle cx="500.0" cy="164.3" r="13" fill="#dce8f4" opacity="0.92"/>
<circle cx="500.0" cy="164.3" r="10" fill="#4db6df" filter="url(#softGlow)"/>
<circle cx="497.2" cy="161.1" r="2.2" fill="#f7fcff" opacity="0.55"/>
<circle cx="500.0" cy="189.0" r="13" fill="#dce8f4" opacity="0.92"/>
<circle cx="500.0" cy="189.0" r="10" fill="#4db6df" filter="url(#softGlow)"/>
<circle cx="497.2" cy="185.8" r="2.2" fill="#f7fcff" opacity="0.55"/>
<circle cx="500.0" cy="213.8" r="13" fill="#dce8f4" opacity="0.92"/>
<circle cx="500.0" cy="213.8" r="10" fill="#4db6df" filter="url(#softGlow)"/>
<circle cx="497.2" cy="210.6" r="2.2" fill="#f7fcff" opacity="0.55"/>
<circle cx="500.0" cy="238.6" r="13" fill="#dce8f4" opacity="0.92"/>
<circle cx="500.0" cy="238.6" r="10" fill="#4db6df" filter="url(#softGlow)"/>
<circle cx="497.2" cy="235.4" r="2.2" fill="#f7fcff" opacity="0.55"/>
<circle cx="500.0" cy="263.3" r="13" fill="#dce8f4" opacity="0.92"/>
<circle cx="500.0" cy="263.3" r="10" fill="#4db6df" filter="url(#softGlow)"/>
<circle cx="497.2" cy="260.1" r="2.2" fill="#f7fcff" opacity="0.55"/>
<circle cx="500.0" cy="288.1" r="13" fill="#dce8f4" opacity="0.92"/>
<circle cx="500.0" cy="288.1" r="10" fill="#4db6df" filter="url(#softGlow)"/>
<circle cx="497.2" cy="284.9" r="2.2" fill="#f7fcff" opacity="0.55"/>
<circle cx="500.0" cy="312.9" r="13" fill="#dce8f4" opacity="0.92"/>
<circle cx="500.0" cy="312.9" r="10" fill="#4db6df" filter="url(#softGlow)"/>
<circle cx="497.2" cy="309.7" r="2.2" fill="#f7fcff" opacity="0.55"/>
<circle cx="500.0" cy="337.6" r="13" fill="#dce8f4" opacity="0.92"/>
<circle cx="500.0" cy="337.6" r="10" fill="#4db6df" filter="url(#softGlow)"/>
<circle cx="497.2" cy="334.4" r="2.2" fill="#f7fcff" opacity="0.55"/>
<circle cx="500.0" cy="362.4" r="13" fill="#dce8f4" opacity="0.92"/>
<circle cx="500.0" cy="362.4" r="10" fill="#4db6df" filter="url(#softGlow)"/>
<circle cx="497.2" cy="359.2" r="2.2" fill="#f7fcff" opacity="0.55"/>
<circle cx="500.0" cy="387.1" r="13" fill="#dce8f4" opacity="0.92"/>
<circle cx="500.0" cy="387.1" r="10" fill="#4db6df" filter="url(#softGlow)"/>
<circle cx="497.2" cy="383.9" r="2.2" fill="#f7fcff" opacity="0.55"/>
<circle cx="500.0" cy="411.9" r="13" fill="#dce8f4" opacity="0.92"/>
<circle cx="500.0" cy="411.9" r="10" fill="#4db6df" filter="url(#softGlow)"/>
<circle cx="497.2" cy="408.7" r="2.2" fill="#f7fcff" opacity="0.55"/>
<circle cx="500.0" cy="436.7" r="13" fill="#dce8f4" opacity="0.92"/>
<circle cx="500.0" cy="436.7" r="10" fill="#4db6df" filter="url(#softGlow)"/>
<circle cx="497.2" cy="433.5" r="2.2" fill="#f7fcff" opacity="0.55"/>
<circle cx="500.0" cy="461.4" r="13" fill="#dce8f4" opacity="0.92"/>
<circle cx="500.0" cy="461.4" r="10" fill="#4db6df" filter="url(#softGlow)"/>
<circle cx="497.2" cy="458.2" r="2.2" fill="#f7fcff" opacity="0.55"/>
<circle cx="500.0" cy="486.2" r="13" fill="#dce8f4" opacity="0.92"/>
<circle cx="500.0" cy="486.2" r="10" fill="#4db6df" filter="url(#softGlow)"/>
<circle cx="497.2" cy="483.0" r="2.2" fill="#f7fcff" opacity="0.55"/>
<circle cx="500.0" cy="511.0" r="13" fill="#dce8f4" opacity="0.92"/>
<circle cx="500.0" cy="511.0" r="10" fill="#4db6df" filter="url(#softGlow)"/>
<circle cx="497.2" cy="507.8" r="2.2" fill="#f7fcff" opacity="0.55"/>
<circle cx="500.0" cy="535.7" r="13" fill="#dce8f4" opacity="0.92"/>
<circle cx="500.0" cy="535.7" r="10" fill="#4db6df" filter="url(#softGlow)"/>
<circle cx="497.2" cy="532.5" r="2.2" fill="#f7fcff" opacity="0.55"/>
<circle cx="500.0" cy="560.5" r="13" fill="#dce8f4" opacity="0.92"/>
<circle cx="500.0" cy="560.5" r="10" fill="#4db6df" filter="url(#softGlow)"/>
<circle cx="497.2" cy="557.3" r="2.2" fill="#f7fcff" opacity="0.55"/>
<circle cx="500.0" cy="585.2" r="13" fill="#dce8f4" opacity="0.92"/>
<circle cx="500.0" cy="585.2" r="10" fill="#4db6df" filter="url(#softGlow)"/>
<circle cx="497.2" cy="582.0" r="2.2" fill="#f7fcff" opacity="0.55"/>
<circle cx="500.0" cy="610.0" r="13" fill="#dce8f4" opacity="0.92"/>
<circle cx="500.0" cy="610.0" r="10" fill="#4db6df" filter="url(#softGlow)"/>
<circle cx="497.2" cy="606.8" r="2.2" fill="#f7fcff" opacity="0.55"/>
<circle cx="700.0" cy="90.0" r="13" fill="#dce8f4" opacity="0.92"/>
<circle cx="700.0" cy="90.0" r="10" fill="#4db6df" filter="url(#softGlow)"/>
<circle cx="697.2" cy="86.8" r="2.2" fill="#f7fcff" opacity="0.55"/>
<circle cx="700.0" cy="114.8" r="13" fill="#dce8f4" opacity="0.92"/>
<circle cx="700.0" cy="114.8" r="10" fill="#4db6df" filter="url(#softGlow)"/>
<circle cx="697.2" cy="111.6" r="2.2" fill="#f7fcff" opacity="0.55"/>
<circle cx="700.0" cy="139.5" r="13" fill="#dce8f4" opacity="0.92"/>
<circle cx="700.0" cy="139.5" r="10" fill="#4db6df" filter="url(#softGlow)"/>
<circle cx="697.2" cy="136.3" r="2.2" fill="#f7fcff" opacity="0.55"/>
<circle cx="700.0" cy="164.3" r="13" fill="#dce8f4" opacity="0.92"/>
<circle cx="700.0" cy="164.3" r="10" fill="#4db6df" filter="url(#softGlow)"/>
<circle cx="697.2" cy="161.1" r="2.2" fill="#f7fcff" opacity="0.55"/>
<circle cx="700.0" cy="189.0" r="13" fill="#dce8f4" opacity="0.92"/>
<circle cx="700.0" cy="189.0" r="10" fill="#4db6df" filter="url(#softGlow)"/>
<circle cx="697.2" cy="185.8" r="2.2" fill="#f7fcff" opacity="0.55"/>
<circle cx="700.0" cy="213.8" r="13" fill="#dce8f4" opacity="0.92"/>
<circle cx="700.0" cy="213.8" r="10" fill="#4db6df" filter="url(#softGlow)"/>
<circle cx="697.2" cy="210.6" r="2.2" fill="#f7fcff" opacity="0.55"/>
<circle cx="700.0" cy="238.6" r="13" fill="#dce8f4" opacity="0.92"/>
<circle cx="700.0" cy="238.6" r="10" fill="#4db6df" filter="url(#softGlow)"/>
<circle cx="697.2" cy="235.4" r="2.2" fill="#f7fcff" opacity="0.55"/>
<circle cx="700.0" cy="263.3" r="13" fill="#dce8f4" opacity="0.92"/>
<circle cx="700.0" cy="263.3" r="10" fill="#4db6df" filter="url(#softGlow)"/>
<circle cx="697.2" cy="260.1" r="2.2" fill="#f7fcff" opacity="0.55"/>
<circle cx="700.0" cy="288.1" r="13" fill="#dce8f4" opacity="0.92"/>
<circle cx="700.0" cy="288.1" r="10" fill="#4db6df" filter="url(#softGlow)"/>
<circle cx="697.2" cy="284.9" r="2.2" fill="#f7fcff" opacity="0.55"/>
<circle cx="700.0" cy="312.9" r="13" fill="#dce8f4" opacity="0.92"/>
<circle cx="700.0" cy="312.9" r="10" fill="#4db6df" filter="url(#softGlow)"/>
<circle cx="697.2" cy="309.7" r="2.2" fill="#f7fcff" opacity="0.55"/>
<circle cx="700.0" cy="337.6" r="13" fill="#dce8f4" opacity="0.92"/>
<circle cx="700.0" cy="337.6" r="10" fill="#4db6df" filter="url(#softGlow)"/>
<circle cx="697.2" cy="334.4" r="2.2" fill="#f7fcff" opacity="0.55"/>
<circle cx="700.0" cy="362.4" r="13" fill="#dce8f4" opacity="0.92"/>
<circle cx="700.0" cy="362.4" r="10" fill="#4db6df" filter="url(#softGlow)"/>
<circle cx="697.2" cy="359.2" r="2.2" fill="#f7fcff" opacity="0.55"/>
<circle cx="700.0" cy="387.1" r="13" fill="#dce8f4" opacity="0.92"/>
<circle cx="700.0" cy="387.1" r="10" fill="#4db6df" filter="url(#softGlow)"/>
<circle cx="697.2" cy="383.9" r="2.2" fill="#f7fcff" opacity="0.55"/>
<circle cx="700.0" cy="411.9" r="13" fill="#dce8f4" opacity="0.92"/>
<circle cx="700.0" cy="411.9" r="10" fill="#4db6df" filter="url(#softGlow)"/>
<circle cx="697.2" cy="408.7" r="2.2" fill="#f7fcff" opacity="0.55"/>
<circle cx="700.0" cy="436.7" r="13" fill="#dce8f4" opacity="0.92"/>
<circle cx="700.0" cy="436.7" r="10" fill="#4db6df" filter="url(#softGlow)"/>
<circle cx="697.2" cy="433.5" r="2.2" fill="#f7fcff" opacity="0.55"/>
<circle cx="700.0" cy="461.4" r="13" fill="#dce8f4" opacity="0.92"/>
<circle cx="700.0" cy="461.4" r="10" fill="#4db6df" filter="url(#softGlow)"/>
<circle cx="697.2" cy="458.2" r="2.2" fill="#f7fcff" opacity="0.55"/>
<circle cx="700.0" cy="486.2" r="13" fill="#dce8f4" opacity="0.92"/>
<circle cx="700.0" cy="486.2" r="10" fill="#4db6df" filter="url(#softGlow)"/>
<circle cx="697.2" cy="483.0" r="2.2" fill="#f7fcff" opacity="0.55"/>
<circle cx="700.0" cy="511.0" r="13" fill="#dce8f4" opacity="0.92"/>
<circle cx="700.0" cy="511.0" r="10" fill="#4db6df" filter="url(#softGlow)"/>
<circle cx="697.2" cy="507.8" r="2.2" fill="#f7fcff" opacity="0.55"/>
<circle cx="700.0" cy="535.7" r="13" fill="#dce8f4" opacity="0.92"/>
<circle cx="700.0" cy="535.7" r="10" fill="#4db6df" filter="url(#softGlow)"/>
<circle cx="697.2" cy="532.5" r="2.2" fill="#f7fcff" opacity="0.55"/>
<circle cx="700.0" cy="560.5" r="13" fill="#dce8f4" opacity="0.92"/>
<circle cx="700.0" cy="560.5" r="10" fill="#4db6df" filter="url(#softGlow)"/>
<circle cx="697.2" cy="557.3" r="2.2" fill="#f7fcff" opacity="0.55"/>
<circle cx="700.0" cy="585.2" r="13" fill="#dce8f4" opacity="0.92"/>
<circle cx="700.0" cy="585.2" r="10" fill="#4db6df" filter="url(#softGlow)"/>
<circle cx="697.2" cy="582.0" r="2.2" fill="#f7fcff" opacity="0.55"/>
<circle cx="700.0" cy="610.0" r="13" fill="#dce8f4" opacity="0.92"/>
<circle cx="700.0" cy="610.0" r="10" fill="#4db6df" filter="url(#softGlow)"/>
<circle cx="697.2" cy="606.8" r="2.2" fill="#f7fcff" opacity="0.55"/>
<circle cx="930.0" cy="90.0" r="12" fill="#dce8f4" opacity="0.92"/>
<circle cx="930.0" cy="90.0" r="9" fill="#4db6df" filter="url(#softGlow)"/>
<circle cx="927.2" cy="86.8" r="2.2" fill="#f7fcff" opacity="0.55"/>
<circle cx="930.0" cy="130.0" r="12" fill="#dce8f4" opacity="0.92"/>
<circle cx="930.0" cy="130.0" r="9" fill="#4db6df" filter="url(#softGlow)"/>
<circle cx="927.2" cy="126.8" r="2.2" fill="#f7fcff" opacity="0.55"/>
<circle cx="930.0" cy="170.0" r="12" fill="#dce8f4" opacity="0.92"/>
<circle cx="930.0" cy="170.0" r="9" fill="#4db6df" filter="url(#softGlow)"/>
<circle cx="927.2" cy="166.8" r="2.2" fill="#f7fcff" opacity="0.55"/>
<circle cx="930.0" cy="210.0" r="12" fill="#dce8f4" opacity="0.92"/>
<circle cx="930.0" cy="210.0" r="9" fill="#4db6df" filter="url(#softGlow)"/>
<circle cx="927.2" cy="206.8" r="2.2" fill="#f7fcff" opacity="0.55"/>
<circle cx="930.0" cy="250.0" r="12" fill="#dce8f4" opacity="0.92"/>
<circle cx="930.0" cy="250.0" r="9" fill="#4db6df" filter="url(#softGlow)"/>
<circle cx="927.2" cy="246.8" r="2.2" fill="#f7fcff" opacity="0.55"/>
<circle cx="930.0" cy="290.0" r="12" fill="#dce8f4" opacity="0.92"/>
<circle cx="930.0" cy="290.0" r="9" fill="#4db6df" filter="url(#softGlow)"/>
<circle cx="927.2" cy="286.8" r="2.2" fill="#f7fcff" opacity="0.55"/>
<circle cx="930.0" cy="330.0" r="12" fill="#dce8f4" opacity="0.92"/>
<circle cx="930.0" cy="330.0" r="9" fill="#4db6df" filter="url(#softGlow)"/>
<circle cx="927.2" cy="326.8" r="2.2" fill="#f7fcff" opacity="0.55"/>
<circle cx="930.0" cy="370.0" r="12" fill="#dce8f4" opacity="0.92"/>
<circle cx="930.0" cy="370.0" r="9" fill="#4db6df" filter="url(#softGlow)"/>
<circle cx="927.2" cy="366.8" r="2.2" fill="#f7fcff" opacity="0.55"/>
<circle cx="930.0" cy="410.0" r="12" fill="#dce8f4" opacity="0.92"/>
<circle cx="930.0" cy="410.0" r="9" fill="#4db6df" filter="url(#softGlow)"/>
<circle cx="927.2" cy="406.8" r="2.2" fill="#f7fcff" opacity="0.55"/>
<circle cx="930.0" cy="450.0" r="12" fill="#dce8f4" opacity="0.92"/>
<circle cx="930.0" cy="450.0" r="9" fill="#4db6df" filter="url(#softGlow)"/>
<circle cx="927.2" cy="446.8" r="2.2" fill="#f7fcff" opacity="0.55"/>
<circle cx="930.0" cy="490.0" r="12" fill="#dce8f4" opacity="0.92"/>
<circle cx="930.0" cy="490.0" r="9" fill="#4db6df" filter="url(#softGlow)"/>
<circle cx="927.2" cy="486.8" r="2.2" fill="#f7fcff" opacity="0.55"/>
<circle cx="930.0" cy="530.0" r="12" fill="#dce8f4" opacity="0.92"/>
<circle cx="930.0" cy="530.0" r="9" fill="#4db6df" filter="url(#softGlow)"/>
<circle cx="927.2" cy="526.8" r="2.2" fill="#f7fcff" opacity="0.55"/>
<circle cx="930.0" cy="570.0" r="12" fill="#dce8f4" opacity="0.92"/>
<circle cx="930.0" cy="570.0" r="9" fill="#4db6df" filter="url(#softGlow)"/>
<circle cx="927.2" cy="566.8" r="2.2" fill="#f7fcff" opacity="0.55"/>
<circle cx="930.0" cy="610.0" r="12" fill="#dce8f4" opacity="0.92"/>
<circle cx="930.0" cy="610.0" r="9" fill="#4db6df" filter="url(#softGlow)"/>
<circle cx="927.2" cy="606.8" r="2.2" fill="#f7fcff" opacity="0.55"/>
<circle cx="1130.0" cy="350.0" r="17" fill="#dce8f4" opacity="0.92"/>
<circle cx="1130.0" cy="350.0" r="13" fill="#4db6df" filter="url(#softGlow)"/>
<circle cx="1127.2" cy="346.8" r="2.2" fill="#f7fcff" opacity="0.55"/>
</svg>